<?xml version="1.0" encoding="utf-8"?>
<svg version="1.1" xmlns:xlink="http://www.w3.org/1999/xlink" width="76px" height="32px" xmlns="http://www.w3.org/2000/svg">
  <defs>
    <mask fill="white" id="clip7">
      <path d="M 0 27  L 0 5  C 0 2.20000000000005  2.19999999999982 0  5 0  L 71 0  C 73.8000000000002 0  76 2.20000000000005  76 5  L 76 27  C 76 29.8  73.8000000000002 32  71 32  L 55.3333333333358 32  L 5 32  C 2.19999999999982 32  0 29.8  0 27  Z " fill-rule="evenodd" />
    </mask>
  </defs>
  <g transform="matrix(1 0 0 1 -3628 -1765 )">
    <path d="M 0 27  L 0 5  C 0 2.20000000000005  2.19999999999982 0  5 0  L 71 0  C 73.8000000000002 0  76 2.20000000000005  76 5  L 76 27  C 76 29.8  73.8000000000002 32  71 32  L 55.3333333333358 32  L 5 32  C 2.19999999999982 32  0 29.8  0 27  Z " fill-rule="nonzero" fill="#ffffff" stroke="none" transform="matrix(1 0 0 1 3628 1765 )" />
    <path d="M 0 27  L 0 5  C 0 2.20000000000005  2.19999999999982 0  5 0  L 71 0  C 73.8000000000002 0  76 2.20000000000005  76 5  L 76 27  C 76 29.8  73.8000000000002 32  71 32  L 55.3333333333358 32  L 5 32  C 2.19999999999982 32  0 29.8  0 27  Z " stroke-width="2" stroke="#797979" fill="none" transform="matrix(1 0 0 1 3628 1765 )" mask="url(#clip7)" />
  </g>
</svg>