<?xml version="1.0" encoding="utf-8"?>
<svg version="1.1" xmlns:xlink="http://www.w3.org/1999/xlink" width="32px" height="31px" xmlns="http://www.w3.org/2000/svg">
  <defs>
    <mask fill="white" id="clip8">
      <path d="M 0 15.5  C 0 7.62778221083954  5.79065125290174 1.28548080383769  13.5524926942798 0.173198685156763  C 14.3489489925716 0.0590654468535377  15.1661602984883 0  16 0  C 19.4548191931038 0  22.6241845678792 1.01395575052072  25.2145867998304 2.75753009345681  C 29.3423375886256 5.53587867600743  32 10.1668560933193  32 15.5  C 32 24.1800000000001  24.96 31  16 31  C 12.0338329663102 31  8.44387322548857 29.6636803451245  5.67419844503732 27.4212412757663  C 2.18687854471835 24.5977681203544  0 20.337775686113  0 15.5  Z " fill-rule="evenodd" />
    </mask>
  </defs>
  <g transform="matrix(1 0 0 1 -244 -521 )">
    <path d="M 0 15.5  C 0 7.62778221083954  5.79065125290174 1.28548080383769  13.5524926942798 0.173198685156763  C 14.3489489925716 0.0590654468535377  15.1661602984883 0  16 0  C 19.4548191931038 0  22.6241845678792 1.01395575052072  25.2145867998304 2.75753009345681  C 29.3423375886256 5.53587867600743  32 10.1668560933193  32 15.5  C 32 24.1800000000001  24.96 31  16 31  C 12.0338329663102 31  8.44387322548857 29.6636803451245  5.67419844503732 27.4212412757663  C 2.18687854471835 24.5977681203544  0 20.337775686113  0 15.5  Z " fill-rule="nonzero" fill="#00ffff" stroke="none" transform="matrix(1 0 0 1 244 521 )" />
    <path d="M 0 15.5  C 0 7.62778221083954  5.79065125290174 1.28548080383769  13.5524926942798 0.173198685156763  C 14.3489489925716 0.0590654468535377  15.1661602984883 0  16 0  C 19.4548191931038 0  22.6241845678792 1.01395575052072  25.2145867998304 2.75753009345681  C 29.3423375886256 5.53587867600743  32 10.1668560933193  32 15.5  C 32 24.1800000000001  24.96 31  16 31  C 12.0338329663102 31  8.44387322548857 29.6636803451245  5.67419844503732 27.4212412757663  C 2.18687854471835 24.5977681203544  0 20.337775686113  0 15.5  Z " stroke-width="2" stroke="#797979" fill="none" transform="matrix(1 0 0 1 244 521 )" mask="url(#clip8)" />
  </g>
</svg>