<?xml version="1.0" encoding="utf-8"?>
<svg version="1.1" xmlns:xlink="http://www.w3.org/1999/xlink" width="32px" height="31px" xmlns="http://www.w3.org/2000/svg">
  <defs>
    <mask fill="white" id="clip9">
      <path d="M 0 15.5  C 0 10.6691588834149  2.1806136025873 6.41444579251333  5.65921007037082 3.59090925414307  C 8.430915902263 1.34114767287269  12.0266747009912 0  16 0  C 19.4548191931037 0  22.6241845678792 1.01395575052072  25.2145867998304 2.75753009345681  C 29.3423375886257 5.53587867600743  32 10.1668560933193  32 15.5  C 32 24.1800000000001  24.96 31  16 31  C 12.0338329663102 31  8.44387322548846 29.6636803451245  5.67419844503729 27.4212412757663  C 3.35255937226952 25.5415497688541  1.60728397797925 23.0251840034801  0.699923461865637 20.1255217043525  C 0.244343277281132 18.6696189380211  0 17.117087771265  0 15.5  Z " fill-rule="evenodd" />
    </mask>
  </defs>
  <g transform="matrix(1 0 0 1 -1448 -727 )">
    <path d="M 0 15.5  C 0 10.6691588834149  2.1806136025873 6.41444579251333  5.65921007037082 3.59090925414307  C 8.430915902263 1.34114767287269  12.0266747009912 0  16 0  C 19.4548191931037 0  22.6241845678792 1.01395575052072  25.2145867998304 2.75753009345681  C 29.3423375886257 5.53587867600743  32 10.1668560933193  32 15.5  C 32 24.1800000000001  24.96 31  16 31  C 12.0338329663102 31  8.44387322548846 29.6636803451245  5.67419844503729 27.4212412757663  C 3.35255937226952 25.5415497688541  1.60728397797925 23.0251840034801  0.699923461865637 20.1255217043525  C 0.244343277281132 18.6696189380211  0 17.117087771265  0 15.5  Z " fill-rule="nonzero" fill="#00ffff" stroke="none" transform="matrix(1 0 0 1 1448 727 )" />
    <path d="M 0 15.5  C 0 10.6691588834149  2.1806136025873 6.41444579251333  5.65921007037082 3.59090925414307  C 8.430915902263 1.34114767287269  12.0266747009912 0  16 0  C 19.4548191931037 0  22.6241845678792 1.01395575052072  25.2145867998304 2.75753009345681  C 29.3423375886257 5.53587867600743  32 10.1668560933193  32 15.5  C 32 24.1800000000001  24.96 31  16 31  C 12.0338329663102 31  8.44387322548846 29.6636803451245  5.67419844503729 27.4212412757663  C 3.35255937226952 25.5415497688541  1.60728397797925 23.0251840034801  0.699923461865637 20.1255217043525  C 0.244343277281132 18.6696189380211  0 17.117087771265  0 15.5  Z " stroke-width="2" stroke="#797979" fill="none" transform="matrix(1 0 0 1 1448 727 )" mask="url(#clip9)" />
  </g>
</svg>