<?xml version="1.0" encoding="utf-8"?>
<svg version="1.1" xmlns:xlink="http://www.w3.org/1999/xlink" width="12px" height="12px" viewBox="819 454  12 12" xmlns="http://www.w3.org/2000/svg">
  <path d="M 825 454  C 828.36 454  831 456.64  831 460  C 831 463.36  828.36 466  825 466  C 821.64 466  819 463.36  819 460  C 819 456.64  821.64 454  825 454  Z " fill-rule="nonzero" fill="#ffffff" stroke="none" />
  <path d="M 825 454.5  C 828.08 454.5  830.5 456.92  830.5 460  C 830.5 463.08  828.08 465.5  825 465.5  C 821.92 465.5  819.5 463.08  819.5 460  C 819.5 456.92  821.92 454.5  825 454.5  Z " stroke-width="1" stroke="#797979" fill="none" />
  <path d="M 825 463  C 823.32 463  822 461.68  822 460  C 822 458.32  823.32 457  825 457  C 826.68 457  828 458.32  828 460  C 828 461.68  826.68 463  825 463  " fill-rule="nonzero" fill="#797979" stroke="none" />
</svg>