<?xml version="1.0" encoding="utf-8"?>
<svg version="1.1" xmlns:xlink="http://www.w3.org/1999/xlink" width="12px" height="12px" viewBox="899 453  12 12" xmlns="http://www.w3.org/2000/svg">
  <path d="M 905 453  C 908.36 453  911 455.64  911 459  C 911 462.36  908.36 465  905 465  C 901.64 465  899 462.36  899 459  C 899 455.64  901.64 453  905 453  Z " fill-rule="nonzero" fill="#ffffff" stroke="none" />
  <path d="M 905 453.5  C 908.08 453.5  910.5 455.92  910.5 459  C 910.5 462.08  908.08 464.5  905 464.5  C 901.92 464.5  899.5 462.08  899.5 459  C 899.5 455.92  901.92 453.5  905 453.5  Z " stroke-width="1" stroke="#797979" fill="none" />
  <path d="M 905 462  C 903.32 462  902 460.68  902 459  C 902 457.32  903.32 456  905 456  C 906.68 456  908 457.32  908 459  C 908 460.68  906.68 462  905 462  " fill-rule="nonzero" fill="#797979" stroke="none" />
</svg>