<?xml version="1.0" encoding="utf-8"?>
<svg version="1.1" xmlns:xlink="http://www.w3.org/1999/xlink" width="12px" height="12px" viewBox="980 453  12 12" xmlns="http://www.w3.org/2000/svg">
  <path d="M 986 453  C 989.36 453  992 455.64  992 459  C 992 462.36  989.36 465  986 465  C 982.64 465  980 462.36  980 459  C 980 455.64  982.64 453  986 453  Z " fill-rule="nonzero" fill="#ffffff" stroke="none" />
  <path d="M 986 453.5  C 989.08 453.5  991.5 455.92  991.5 459  C 991.5 462.08  989.08 464.5  986 464.5  C 982.92 464.5  980.5 462.08  980.5 459  C 980.5 455.92  982.92 453.5  986 453.5  Z " stroke-width="1" stroke="#797979" fill="none" />
  <path d="M 986 462  C 984.32 462  983 460.68  983 459  C 983 457.32  984.32 456  986 456  C 987.68 456  989 457.32  989 459  C 989 460.68  987.68 462  986 462  " fill-rule="nonzero" fill="#797979" stroke="none" />
</svg>