<?xml version="1.0" encoding="utf-8"?>
<svg version="1.1" xmlns:xlink="http://www.w3.org/1999/xlink" width="12px" height="12px" viewBox="940 526  12 12" xmlns="http://www.w3.org/2000/svg">
  <path d="M 946 526  C 949.36 526  952 528.64  952 532  C 952 535.36  949.36 538  946 538  C 942.64 538  940 535.36  940 532  C 940 528.64  942.64 526  946 526  Z " fill-rule="nonzero" fill="#ffffff" stroke="none" />
  <path d="M 946 526.5  C 949.08 526.5  951.5 528.92  951.5 532  C 951.5 535.08  949.08 537.5  946 537.5  C 942.92 537.5  940.5 535.08  940.5 532  C 940.5 528.92  942.92 526.5  946 526.5  Z " stroke-width="1" stroke="#797979" fill="none" />
  <path d="M 946 535  C 944.32 535  943 533.68  943 532  C 943 530.32  944.32 529  946 529  C 947.68 529  949 530.32  949 532  C 949 533.68  947.68 535  946 535  " fill-rule="nonzero" fill="#797979" stroke="none" />
</svg>