<?xml version="1.0" encoding="utf-8"?>
<svg version="1.1" xmlns:xlink="http://www.w3.org/1999/xlink" width="12px" height="12px" viewBox="1097 526  12 12" xmlns="http://www.w3.org/2000/svg">
  <path d="M 1103 526  C 1106.36 526  1109 528.64  1109 532  C 1109 535.36  1106.36 538  1103 538  C 1099.64 538  1097 535.36  1097 532  C 1097 528.64  1099.64 526  1103 526  Z " fill-rule="nonzero" fill="#ffffff" stroke="none" />
  <path d="M 1103 526.5  C 1106.08 526.5  1108.5 528.92  1108.5 532  C 1108.5 535.08  1106.08 537.5  1103 537.5  C 1099.92 537.5  1097.5 535.08  1097.5 532  C 1097.5 528.92  1099.92 526.5  1103 526.5  Z " stroke-width="1" stroke="#797979" fill="none" />
  <path d="M 1103 535  C 1101.32 535  1100 533.68  1100 532  C 1100 530.32  1101.32 529  1103 529  C 1104.68 529  1106 530.32  1106 532  C 1106 533.68  1104.68 535  1103 535  " fill-rule="nonzero" fill="#797979" stroke="none" />
</svg>