<?xml version="1.0" encoding="utf-8"?>
<svg version="1.1" xmlns:xlink="http://www.w3.org/1999/xlink" width="12px" height="9px" xmlns="http://www.w3.org/2000/svg">
  <g transform="matrix(1 0 0 1 -537 -279 )">
    <path d="M 11.8797595190381 0.927835051546391  C 11.9599198396794 1.03092783505154  12 1.14948453608247  12 1.28350515463918  C 12 1.41752577319588  11.9599198396794 1.5360824742268  11.8797595190381 1.63917525773196  L 6.27655310621242 8.84536082474227  C 6.19639278557114 8.94845360824742  6.10420841683367 9  6 9  C 5.89579158316633 9  5.80360721442886 8.94845360824742  5.72344689378757 8.84536082474227  L 0.120240480961924 1.63917525773196  C 0.0400801603206414 1.5360824742268  0 1.41752577319588  0 1.28350515463918  C 0 1.14948453608247  0.0400801603206414 1.03092783505154  0.120240480961924 0.927835051546391  L 0.721442885771543 0.154639175257732  C 0.801603206412826 0.0515463917525761  0.893787575150301 0  0.997995991983968 0  C 1.10220440881764 0  1.19438877755511 0.0515463917525761  1.27454909819639 0.154639175257732  L 6 6.2319587628866  L 10.7254509018036 0.154639175257732  C 10.8056112224449 0.0515463917525761  10.8977955911824 0  11.002004008016 0  C 11.1062124248497 0  11.1983967935872 0.0515463917525761  11.2785571142285 0.154639175257732  L 11.8797595190381 0.927835051546391  Z " fill-rule="nonzero" fill="#1700ff" stroke="none" transform="matrix(1 0 0 1 537 279 )" />
  </g>
</svg>