<?xml version="1.0" encoding="utf-8"?>
<svg version="1.1" xmlns:xlink="http://www.w3.org/1999/xlink" width="16px" height="16px" xmlns="http://www.w3.org/2000/svg">
  <g transform="matrix(1 0 0 1 -1418 -546 )">
    <path d="M 9.47412008281574 14.3006012024048  C 9.58454106280193 14.4074816299265  9.63975155279503 14.5303941215765  9.63975155279503 14.6693386773547  C 9.63975155279503 14.8082832331329  9.58454106280193 14.9311957247829  9.47412008281574 15.0380761523046  L 8.64596273291926 15.8396793587174  C 8.53554175293306 15.9465597862391  8.40855762594893 16  8.26501035196687 16  C 8.12146307798482 16  7.99447895100069 15.9465597862391  7.88405797101449 15.8396793587174  L 0.165631469979296 8.3687374749499  C 0.0552104899930987 8.26185704742819  0 8.13894455577822  0 8  C 0 7.86105544422178  0.0552104899930987 7.73814295257181  0.165631469979296 7.6312625250501  L 7.88405797101449 0.160320641282565  C 7.99447895100069 0.0534402137608545  8.12146307798482 0  8.26501035196687 0  C 8.40855762594893 0  8.53554175293306 0.0534402137608545  8.64596273291926 0.160320641282565  L 9.47412008281574 0.96192384769539  C 9.58454106280193 1.0688042752171  9.63975155279503 1.19171676686707  9.63975155279503 1.33066132264529  C 9.63975155279503 1.46960587842351  9.58454106280193 1.59251837007348  9.47412008281574 1.69939879759519  L 2.9648033126294 8  L 9.47412008281574 14.3006012024048  Z M 15.8343685300207 14.3006012024048  C 15.9447895100069 14.4074816299265  16 14.5303941215765  16 14.6693386773547  C 16 14.8082832331329  15.9447895100069 14.9311957247829  15.8343685300207 15.0380761523046  L 15.0062111801242 15.8396793587174  C 14.895790200138 15.9465597862391  14.7688060731539 16  14.6252587991718 16  C 14.4817115251898 16  14.3547273982057 15.9465597862391  14.2443064182195 15.8396793587174  L 6.52587991718427 8.3687374749499  C 6.41545893719807 8.26185704742819  6.36024844720497 8.13894455577822  6.36024844720497 8  C 6.36024844720497 7.86105544422178  6.41545893719807 7.73814295257181  6.52587991718427 7.6312625250501  L 14.2443064182195 0.160320641282565  C 14.3547273982057 0.0534402137608545  14.4817115251898 0  14.6252587991718 0  C 14.7688060731539 0  14.895790200138 0.0534402137608545  15.0062111801242 0.160320641282565  L 15.8343685300207 0.96192384769539  C 15.9447895100069 1.0688042752171  16 1.19171676686707  16 1.33066132264529  C 16 1.46960587842351  15.9447895100069 1.59251837007348  15.8343685300207 1.69939879759519  L 9.32505175983437 8  L 15.8343685300207 14.3006012024048  Z " fill-rule="nonzero" fill="#169bd5" stroke="none" transform="matrix(1 0 0 1 1418 546 )" />
  </g>
</svg>