<?xml version="1.0" encoding="utf-8"?>
<svg version="1.1" xmlns:xlink="http://www.w3.org/1999/xlink" width="16px" height="16px" xmlns="http://www.w3.org/2000/svg">
  <g transform="matrix(1 0 0 1 -1694 -546 )">
    <path d="M 9.47412008281574 7.6312625250501  C 9.58454106280193 7.73814295257181  9.63975155279503 7.86105544422178  9.63975155279503 8  C 9.63975155279503 8.13894455577822  9.58454106280193 8.26185704742819  9.47412008281574 8.3687374749499  L 1.75569358178054 15.8396793587174  C 1.64527260179434 15.9465597862391  1.51828847481021 16  1.37474120082816 16  C 1.2311939268461 16  1.10420979986197 15.9465597862391  0.993788819875776 15.8396793587174  L 0.165631469979296 15.0380761523046  C 0.0552104899930987 14.9311957247829  0 14.8082832331329  0 14.6693386773547  C 0 14.5303941215765  0.0552104899930987 14.4074816299265  0.165631469979296 14.3006012024048  L 6.67494824016563 8  L 0.165631469979296 1.69939879759519  C 0.0552104899930987 1.59251837007348  0 1.46960587842351  0 1.33066132264529  C 0 1.19171676686707  0.0552104899930987 1.0688042752171  0.165631469979296 0.96192384769539  L 0.993788819875776 0.160320641282565  C 1.10420979986197 0.0534402137608545  1.2311939268461 0  1.37474120082816 0  C 1.51828847481021 0  1.64527260179434 0.0534402137608545  1.75569358178054 0.160320641282565  L 9.47412008281574 7.6312625250501  Z M 15.8343685300207 7.6312625250501  C 15.9447895100069 7.73814295257181  16 7.86105544422178  16 8  C 16 8.13894455577822  15.9447895100069 8.26185704742819  15.8343685300207 8.3687374749499  L 8.11594202898551 15.8396793587174  C 8.00552104899931 15.9465597862391  7.87853692201518 16  7.73498964803313 16  C 7.59144237405107 16  7.46445824706694 15.9465597862391  7.35403726708075 15.8396793587174  L 6.52587991718427 15.0380761523046  C 6.41545893719807 14.9311957247829  6.36024844720497 14.8082832331329  6.36024844720497 14.6693386773547  C 6.36024844720497 14.5303941215765  6.41545893719807 14.4074816299265  6.52587991718427 14.3006012024048  L 13.0351966873706 8  L 6.52587991718427 1.69939879759519  C 6.41545893719807 1.59251837007348  6.36024844720497 1.46960587842351  6.36024844720497 1.33066132264529  C 6.36024844720497 1.19171676686707  6.41545893719807 1.0688042752171  6.52587991718427 0.96192384769539  L 7.35403726708075 0.160320641282565  C 7.46445824706694 0.0534402137608545  7.59144237405107 0  7.73498964803313 0  C 7.87853692201518 0  8.00552104899931 0.0534402137608545  8.11594202898551 0.160320641282565  L 15.8343685300207 7.6312625250501  Z " fill-rule="nonzero" fill="#007dff" stroke="none" transform="matrix(1 0 0 1 1694 546 )" />
  </g>
</svg>