<?xml version="1.0" encoding="utf-8"?>
<svg version="1.1" xmlns:xlink="http://www.w3.org/1999/xlink" width="25px" height="15px" xmlns="http://www.w3.org/2000/svg">
  <g transform="matrix(1 0 0 1 -272 -110 )">
    <path d="M 24.749498997996 1.54639175257732  C 24.9164996659987 1.71821305841924  25 1.91580756013746  25 2.13917525773196  C 25 2.36254295532646  24.9164996659987 2.56013745704467  24.749498997996 2.7319587628866  L 13.0761523046092 14.7422680412371  C 12.9091516366065 14.914089347079  12.7171008684035 15  12.5 15  C 12.2828991315965 15  12.0908483633935 14.914089347079  11.9238476953908 14.7422680412371  L 0.250501002004008 2.7319587628866  C 0.0835003340013362 2.56013745704467  0 2.36254295532646  0 2.13917525773196  C 0 1.91580756013746  0.0835003340013362 1.71821305841924  0.250501002004008 1.54639175257732  L 1.50300601202405 0.257731958762887  C 1.67000668002672 0.0859106529209602  1.86205744822979 0  2.07915831663327 0  C 2.29625918503674 0  2.48830995323981 0.0859106529209602  2.65531062124249 0.257731958762887  L 12.5 10.3865979381443  L 22.3446893787575 0.257731958762887  C 22.5116900467602 0.0859106529209602  22.7037408149633 0  22.9208416833667 0  C 23.1379425517702 0  23.3299933199733 0.0859106529209602  23.496993987976 0.257731958762887  L 24.749498997996 1.54639175257732  Z " fill-rule="nonzero" fill="#ffffff" stroke="none" transform="matrix(1 0 0 1 272 110 )" />
  </g>
</svg>