<?xml version="1.0" encoding="utf-8"?>
<svg version="1.1" xmlns:xlink="http://www.w3.org/1999/xlink" width="25px" height="23px" xmlns="http://www.w3.org/2000/svg">
  <g transform="matrix(1 0 0 1 -75 -151 )">
    <path d="M 2.06580528846154 20.9410807291667  C 2.16095753205128 21.0359157986111  2.27363782051282 21.0833333333333  2.40384615384615 21.0833333333333  L 12 21.0833333333333  L 12 4  L 2 4  L 2 20.6041666666667  C 1.92307692307692 20.7339409722222  1.9706530448718 20.8462456597222  2.06580528846154 20.9410807291667  Z M 22.9341947115385 20.9410807291667  C 23.0293469551282 20.8462456597222  23.0769230769231 20.7339409722222  23 20.6041666666667  L 23 3.83333333333333  L 13 3.83333333333333  L 13 21.0833333333333  L 22.5961538461538 21.0833333333333  C 22.7263621794872 21.0833333333333  22.8390424679487 21.0359157986111  22.9341947115385 20.9410807291667  Z M 24.2938701923077 0.703776041666668  C 24.7646233974359 1.17296006944444  25 1.73697916666667  25 2.39583333333333  L 25 20.6041666666667  C 25 21.2630208333333  24.7646233974359 21.8270399305556  24.2938701923077 22.2962239583333  C 23.8231169871795 22.7654079861111  23.2572115384615 23  22.5961538461538 23  L 2.40384615384615 23  C 1.74278846153846 23  1.17688301282051 22.7654079861111  0.706129807692308 22.2962239583333  C 0.235376602564103 21.8270399305556  0 21.2630208333333  0 20.6041666666667  L 0 2.39583333333333  C 0 1.73697916666667  0.235376602564103 1.17296006944444  0.706129807692308 0.703776041666668  C 1.17688301282051 0.234592013888887  1.74278846153846 0  2.40384615384615 0  L 22.5961538461538 0  C 23.2572115384615 0  23.8231169871795 0.234592013888887  24.2938701923077 0.703776041666668  Z " fill-rule="nonzero" fill="#ffffff" stroke="none" transform="matrix(1 0 0 1 75 151 )" />
  </g>
</svg>