<?xml version="1.0" encoding="utf-8"?>
<svg version="1.1" xmlns:xlink="http://www.w3.org/1999/xlink" width="110px" height="120px" xmlns="http://www.w3.org/2000/svg">
  <g transform="matrix(1 0 0 1 -826 -1972 )">
    <path d="M 109.26953125 86.7578125  C 109.756510416667 90.6901041666667  110 94.8697916666667  110 99.296875  C 110 104.973958333333  108.209635416667 109.84375  104.62890625 113.90625  C 101.048177083333 117.96875  96.7369791666667 120  91.6953125 120  L 18.3046875 120  C 13.2630208333333 120  8.95182291666667 117.96875  5.37109375 113.90625  C 1.79036458333333 109.84375  0 104.973958333333  0 99.296875  C 0 94.8697916666667  0.243489583333334 90.6901041666667  0.730468750000001 86.7578125  C 1.21744791666667 82.8255208333333  2.11979166666667 78.8671875  3.4375 74.8828125  C 4.75520833333333 70.8984375  6.43098958333333 67.4869791666667  8.46484375 64.6484375  C 10.4986979166667 61.8098958333333  13.19140625 59.4921875  16.54296875 57.6953125  C 19.89453125 55.8984375  23.7473958333333 55  28.1015625 55  C 35.6067708333333 61.6666666666667  44.5729166666667 65  55 65  C 65.4270833333334 65  74.3932291666667 61.6666666666667  81.8984375 55  C 86.2526041666667 55  90.10546875 55.8984375  93.45703125 57.6953125  C 96.80859375 59.4921875  99.5013020833333 61.8098958333333  101.53515625 64.6484375  C 103.569010416667 67.4869791666667  105.244791666667 70.8984375  106.5625 74.8828125  C 107.880208333333 78.8671875  108.782552083333 82.8255208333333  109.26953125 86.7578125  Z M 78.33203125 8.7890625  C 84.77734375 14.6484375  88 21.71875  88 30  C 88 38.28125  84.77734375 45.3515625  78.33203125 51.2109375  C 71.88671875 57.0703125  64.109375 60  55 60  C 45.890625 60  38.11328125 57.0703125  31.66796875 51.2109375  C 25.22265625 45.3515625  22 38.28125  22 30  C 22 21.71875  25.22265625 14.6484375  31.66796875 8.7890625  C 38.11328125 2.9296875  45.890625 0  55 0  C 64.109375 0  71.88671875 2.9296875  78.33203125 8.7890625  Z " fill-rule="nonzero" fill="#018dc9" stroke="none" transform="matrix(1 0 0 1 826 1972 )" />
  </g>
</svg>