<?xml version="1.0" encoding="utf-8"?>
<svg version="1.1" xmlns:xlink="http://www.w3.org/1999/xlink" width="29px" height="50px" xmlns="http://www.w3.org/2000/svg">
  <g transform="matrix(1 0 0 1 -992 -200 )">
    <path d="M 28.5017182130584 23.8476953907816  C 28.8339060710195 24.1816967267869  29 24.5657982631931  29 25  C 29 25.4342017368069  28.8339060710195 25.8183032732131  28.5017182130584 26.1523046092184  L 5.28178694158076 49.498997995992  C 4.9495990836197 49.8329993319973  4.56758304696449 50  4.13573883161512 50  C 3.70389461626575 50  3.32187857961054 49.8329993319973  2.98969072164948 49.498997995992  L 0.498281786941581 46.9939879759519  C 0.166093928980527 46.6599866399466  0 46.2758851035404  0 45.8416833667335  C 0 45.4074816299265  0.166093928980527 45.0233800935204  0.498281786941581 44.689378757515  L 20.0807560137457 25  L 0.498281786941581 5.31062124248497  C 0.166093928980527 4.97661990647962  0 4.59251837007348  0 4.15831663326653  C 0 3.72411489645958  0.166093928980527 3.34001336005343  0.498281786941581 3.00601202404809  L 2.98969072164948 0.501002004008017  C 3.32187857961054 0.16700066800267  3.70389461626575 0  4.13573883161512 0  C 4.56758304696449 0  4.9495990836197 0.16700066800267  5.28178694158076 0.501002004008017  L 28.5017182130584 23.8476953907816  Z " fill-rule="nonzero" fill="#1983b1" stroke="none" transform="matrix(1 0 0 1 992 200 )" />
  </g>
</svg>