<?xml version="1.0" encoding="utf-8"?>
<svg version="1.1" xmlns:xlink="http://www.w3.org/1999/xlink" width="60px" height="70px" xmlns="http://www.w3.org/2000/svg">
  <g transform="matrix(1 0 0 1 -50 -660 )">
    <path d="M 45.15625 2.65625  L 57.34375 14.84375  C 58.0729166666667 15.5729166666667  58.6979166666667 16.5625  59.21875 17.8125  C 59.7395833333333 19.0625  60 20.2083333333333  60 21.25  L 60 66.25  C 60 67.2916666666667  59.6354166666667 68.1770833333333  58.90625 68.90625  C 58.1770833333333 69.6354166666667  57.2916666666667 70  56.25 70  L 3.75 70  C 2.70833333333333 70  1.82291666666667 69.6354166666667  1.09375 68.90625  C 0.364583333333333 68.1770833333333  0 67.2916666666667  0 66.25  L 0 3.75  C 0 2.70833333333333  0.364583333333333 1.82291666666666  1.09375 1.09375  C 1.82291666666667 0.364583333333336  2.70833333333333 0  3.75 0  L 38.75 0  C 39.7916666666667 0  40.9375 0.26041666666667  42.1875 0.781250000000001  C 43.4375 1.30208333333333  44.4270833333333 1.92708333333333  45.15625 2.65625  Z M 41.6015625 6.171875  C 41.2890625 5.859375  40.7552083333333 5.57291666666666  40 5.3125  L 40 20  L 54.6875 20  C 54.4270833333333 19.2447916666667  54.140625 18.7109375  53.828125 18.3984375  L 41.6015625 6.171875  Z M 5 65  L 55 65  L 55 25  L 38.75 25  C 37.7083333333333 25  36.8229166666667 24.6354166666667  36.09375 23.90625  C 35.3645833333333 23.1770833333333  35 22.2916666666667  35 21.25  L 35 5  L 5 5  L 5 65  Z M 15 33.75  L 15 31.25  C 15 30.8854166666667  15.1171875 30.5859375  15.3515625 30.3515625  C 15.5859375 30.1171875  15.8854166666667 30  16.25 30  L 43.75 30  C 44.1145833333333 30  44.4140625 30.1171875  44.6484375 30.3515625  C 44.8828125 30.5859375  45 30.8854166666667  45 31.25  L 45 33.75  C 45 34.1145833333333  44.8828125 34.4140625  44.6484375 34.6484375  C 44.4140625 34.8828125  44.1145833333333 35  43.75 35  L 16.25 35  C 15.8854166666667 35  15.5859375 34.8828125  15.3515625 34.6484375  C 15.1171875 34.4140625  15 34.1145833333333  15 33.75  Z M 16.25 40  L 43.75 40  C 44.1145833333333 40  44.4140625 40.1171875  44.6484375 40.3515625  C 44.8828125 40.5859375  45 40.8854166666667  45 41.25  L 45 43.75  C 45 44.1145833333333  44.8828125 44.4140625  44.6484375 44.6484375  C 44.4140625 44.8828125  44.1145833333333 45  43.75 45  L 16.25 45  C 15.8854166666667 45  15.5859375 44.8828125  15.3515625 44.6484375  C 15.1171875 44.4140625  15 44.1145833333333  15 43.75  L 15 41.25  C 15 40.8854166666667  15.1171875 40.5859375  15.3515625 40.3515625  C 15.5859375 40.1171875  15.8854166666667 40  16.25 40  Z M 16.25 50  L 43.75 50  C 44.1145833333333 50  44.4140625 50.1171875  44.6484375 50.3515625  C 44.8828125 50.5859375  45 50.8854166666667  45 51.25  L 45 53.75  C 45 54.1145833333333  44.8828125 54.4140625  44.6484375 54.6484375  C 44.4140625 54.8828125  44.1145833333333 55  43.75 55  L 16.25 55  C 15.8854166666667 55  15.5859375 54.8828125  15.3515625 54.6484375  C 15.1171875 54.4140625  15 54.1145833333333  15 53.75  L 15 51.25  C 15 50.8854166666667  15.1171875 50.5859375  15.3515625 50.3515625  C 15.5859375 50.1171875  15.8854166666667 50  16.25 50  Z " fill-rule="nonzero" fill="#018dc9" stroke="none" transform="matrix(1 0 0 1 50 660 )" />
  </g>
</svg>