<?xml version="1.0" encoding="utf-8"?>
<svg version="1.1" xmlns:xlink="http://www.w3.org/1999/xlink" width="53px" height="74px" xmlns="http://www.w3.org/2000/svg">
  <g transform="matrix(1 0 0 1 -56 -1210 )">
    <path d="M 36.15283203125 17.2473958333333  C 37.44677734375 18.4678819444444  38.09375 19.9131944444444  38.09375 21.5833333333333  C 38.09375 22.0008680555556  37.9298502604167 22.3621961805556  37.60205078125 22.6673177083333  C 37.2742513020833 22.9724392361111  36.8860677083333 23.125  36.4375 23.125  C 35.9889322916667 23.125  35.6007486979167 22.9724392361111  35.27294921875 22.6673177083333  C 34.9451497395833 22.3621961805556  34.78125 22.0008680555556  34.78125 21.5833333333333  C 34.78125 20.1059027777778  33.849609375 18.9657118055556  31.986328125 18.1627604166667  C 30.123046875 17.3598090277778  28.2942708333333 16.9583333333333  26.5 16.9583333333333  C 26.0514322916667 16.9583333333333  25.6632486979167 16.8057725694444  25.33544921875 16.5006510416667  C 25.0076497395833 16.1955295138889  24.84375 15.8342013888889  24.84375 15.4166666666667  C 24.84375 14.9991319444444  25.0076497395833 14.6378038194444  25.33544921875 14.3326822916667  C 25.6632486979167 14.0275607638889  26.0514322916667 13.875  26.5 13.875  C 28.2252604166667 13.875  29.94189453125 14.1319444444444  31.64990234375 14.6458333333333  C 33.35791015625 15.1597222222222  34.85888671875 16.0269097222222  36.15283203125 17.2473958333333  Z M 42.85546875 30.2552083333333  C 45.2018229166667 27.7178819444444  46.375 24.8272569444444  46.375 21.5833333333333  C 46.375 19.2708333333333  45.77978515625 17.1189236111111  44.58935546875 15.1276041666667  C 43.39892578125 13.1362847222222  41.84619140625 11.5062934027778  39.93115234375 10.2376302083333  C 38.01611328125 8.96896701388888  35.89404296875 7.97330729166667  33.56494140625 7.25065104166667  C 31.23583984375 6.52799479166667  28.880859375 6.16666666666667  26.5 6.16666666666667  C 24.119140625 6.16666666666667  21.76416015625 6.52799479166667  19.43505859375 7.25065104166667  C 17.10595703125 7.97330729166667  14.98388671875 8.96896701388888  13.06884765625 10.2376302083333  C 11.15380859375 11.5062934027778  9.60107421875 13.1362847222222  8.41064453125 15.1276041666667  C 7.22021484375 17.1189236111111  6.625 19.2708333333333  6.625 21.5833333333333  C 6.625 24.8272569444444  7.79817708333333 27.7178819444444  10.14453125 30.2552083333333  C 10.4895833333333 30.6085069444444  11.0157877604167 31.1384548611111  11.72314453125 31.8450520833333  C 12.4305013020833 32.5516493055556  12.9567057291667 33.0815972222222  13.3017578125 33.4348958333333  C 17.7184244791667 38.3489583333333  20.1510416666667 43.1345486111111  20.599609375 47  L 32.400390625 47  C 32.8489583333333 43.1345486111111  35.2815755208333 38.3489583333333  39.6982421875 33.4348958333333  C 40.0432942708333 33.0815972222222  40.5694986979167 32.5516493055556  41.27685546875 31.8450520833333  C 41.9842122395833 31.1384548611111  42.5104166666667 30.6085069444444  42.85546875 30.2552083333333  Z M 50.69677734375 12.6946614583333  C 52.2322591145833 15.4407552083333  53 18.4036458333333  53 21.5833333333333  C 53 26.5616319444444  51.2229817708333 30.8654513888889  47.6689453125 34.4947916666667  C 46.1162109375 36.0685763888889  44.8308919270833 37.4657118055556  43.81298828125 38.6861979166667  C 42.7950846354167 39.9066840277778  41.7685546875 41.4403211805556  40.7333984375 43.287109375  C 39.6982421875 45.1338975694444  39.1116536458333 46.8602430555556  38.9736328125 48.4661458333333  C 40.5953776041667 49.3654513888889  41.40625 50.6822916666667  41.40625 52.4166666666667  C 41.40625 53.6050347222222  40.9749348958333 54.6328125  40.1123046875 55.5  C 40.9749348958333 56.3671875  41.40625 57.3949652777778  41.40625 58.5833333333333  C 41.40625 60.2534722222222  40.6298828125 61.5542534722222  39.0771484375 62.4856770833333  C 39.5257161458333 63.2243923611111  39.75 63.9791666666667  39.75 64.75  C 39.75 66.2274305555556  39.20654296875 67.3676215277778  38.11962890625 68.1705729166667  C 37.03271484375 68.9735243055556  35.6956380208333 69.375  34.1083984375 69.375  C 33.4182942708333 70.7881944444444  32.3831380208333 71.9123263888889  31.0029296875 72.7473958333333  C 29.6227213541667 73.5824652777778  28.1217447916667 74  26.5 74  C 24.8782552083333 74  23.3772786458333 73.5824652777778  21.9970703125 72.7473958333333  C 20.6168619791667 71.9123263888889  19.5817057291667 70.7881944444444  18.8916015625 69.375  C 17.3043619791667 69.375  15.96728515625 68.9735243055556  14.88037109375 68.1705729166667  C 13.79345703125 67.3676215277778  13.25 66.2274305555556  13.25 64.75  C 13.25 63.9791666666667  13.4742838541667 63.2243923611111  13.9228515625 62.4856770833333  C 12.3701171875 61.5542534722222  11.59375 60.2534722222222  11.59375 58.5833333333333  C 11.59375 57.3949652777778  12.0250651041667 56.3671875  12.8876953125 55.5  C 12.0250651041667 54.6328125  11.59375 53.6050347222222  11.59375 52.4166666666667  C 11.59375 50.6822916666667  12.4046223958333 49.3654513888889  14.0263671875 48.4661458333333  C 13.8883463541667 46.8602430555556  13.3017578125 45.1338975694444  12.2666015625 43.287109375  C 11.2314453125 41.4403211805556  10.2049153645833 39.9066840277778  9.18701171875 38.6861979166667  C 8.16910807291667 37.4657118055556  6.8837890625 36.0685763888889  5.3310546875 34.4947916666667  C 1.77701822916667 30.8654513888889  0 26.5616319444444  0 21.5833333333333  C 0 18.4036458333333  0.767740885416667 15.4407552083333  2.30322265625 12.6946614583333  C 3.83870442708333 9.94856770833333  5.85725911458333 7.66818576388888  8.35888671875 5.853515625  C 10.8605143229167 4.0388454861111  13.68994140625 2.60959201388888  16.84716796875 1.56575520833333  C 20.00439453125 0.521918402777774  23.2220052083333 0  26.5 0  C 29.7779947916667 0  32.99560546875 0.521918402777774  36.15283203125 1.56575520833333  C 39.31005859375 2.60959201388888  42.1394856770833 4.0388454861111  44.64111328125 5.853515625  C 47.1427408854167 7.66818576388888  49.1612955729167 9.94856770833333  50.69677734375 12.6946614583333  Z " fill-rule="nonzero" fill="#05b4d2" stroke="none" transform="matrix(1 0 0 1 56 1210 )" />
  </g>
</svg>