<?xml version="1.0" encoding="utf-8"?>
<svg version="1.1" xmlns:xlink="http://www.w3.org/1999/xlink" width="65px" height="65px" xmlns="http://www.w3.org/2000/svg">
  <g transform="matrix(1 0 0 1 -50 -1612 )">
    <path d="M 40.1595052083333 40.1595052083333  C 42.275390625 38.0436197916667  43.3333333333333 35.4904513888889  43.3333333333333 32.5  C 43.3333333333333 29.5095486111111  42.275390625 26.9563802083333  40.1595052083333 24.8404947916667  C 38.0436197916667 22.724609375  35.4904513888889 21.6666666666667  32.5 21.6666666666667  C 29.5095486111111 21.6666666666667  26.9563802083333 22.724609375  24.8404947916667 24.8404947916667  C 22.724609375 26.9563802083333  21.6666666666667 29.5095486111111  21.6666666666667 32.5  C 21.6666666666667 35.4904513888889  22.724609375 38.0436197916667  24.8404947916667 40.1595052083333  C 26.9563802083333 42.275390625  29.5095486111111 43.3333333333333  32.5 43.3333333333333  C 35.4904513888889 43.3333333333333  38.0436197916667 42.275390625  40.1595052083333 40.1595052083333  Z M 64.6614583333333 26.8929036458333  C 64.8871527777778 27.1891276041667  65 27.5206163194444  65 27.8873697916667  L 65 37.2819010416667  C 65 37.6204427083333  64.8871527777778 37.9448784722222  64.6614583333333 38.2552083333333  C 64.4357638888889 38.5655381944444  64.1536458333333 38.7489149305556  63.8151041666667 38.8053385416667  L 55.986328125 39.990234375  C 55.4503038194445 41.513671875  54.9001736111111 42.7973090277778  54.3359375 43.8411458333333  C 55.3233506944445 45.2517361111111  56.8326822916667 47.1983506944444  58.8639322916667 49.6809895833333  C 59.1460503472222 50.01953125  59.287109375 50.3721788194444  59.287109375 50.7389322916667  C 59.287109375 51.1056857638889  59.16015625 51.4301215277778  58.90625 51.7122395833333  C 58.14453125 52.7560763888889  56.748046875 54.2795138888889  54.716796875 56.2825520833333  C 52.685546875 58.2855902777778  51.3595920138889 59.287109375  50.7389322916667 59.287109375  C 50.400390625 59.287109375  50.0336371527778 59.16015625  49.638671875 58.90625  L 43.798828125 54.3359375  C 42.5575086805556 54.9848090277778  41.2738715277778 55.5208333333333  39.9479166666667 55.9440104166667  C 39.4965277777778 59.7808159722222  39.0874565972222 62.4045138888889  38.720703125 63.8151041666667  C 38.5232204861111 64.6050347222222  38.0154079861111 65  37.197265625 65  L 27.802734375 65  C 27.4077690972222 65  27.0621744791667 64.8800998263889  26.7659505208333 64.6402994791667  C 26.4697265625 64.4004991319444  26.3075086805556 64.0972222222222  26.279296875 63.73046875  L 25.0944010416667 55.9440104166667  C 23.7120225694444 55.4926215277778  22.4424913194444 54.970703125  21.2858072916667 54.3782552083333  L 15.3190104166667 58.90625  C 15.0368923611111 59.16015625  14.6842447916667 59.287109375  14.2610677083333 59.287109375  C 13.8661024305556 59.287109375  13.5134548611111 59.1319444444444  13.203125 58.8216145833333  C 9.6484375 55.60546875  7.32096354166667 53.2356770833333  6.220703125 51.7122395833333  C 6.02322048611111 51.4301215277778  5.92447916666667 51.1056857638889  5.92447916666667 50.7389322916667  C 5.92447916666667 50.400390625  6.03732638888889 50.0759548611111  6.26302083333333 49.765625  C 6.68619791666667 49.1731770833333  7.40559895833333 48.2351345486111  8.42122395833333 46.9514973958333  C 9.43684895833333 45.6678602430556  10.1985677083333 44.6733940972222  10.7063802083333 43.9680989583333  C 9.94466145833333 42.5575086805556  9.36631944444444 41.1610243055556  8.97135416666667 39.7786458333333  L 1.22721354166667 38.6360677083333  C 0.860460069444445 38.5796440972222  0.564236111111111 38.4033203125  0.338541666666667 38.1070963541667  C 0.112847222222222 37.8108723958333  0 37.4793836805556  0 37.1126302083333  L 0 27.7180989583333  C 0 27.3795572916667  0.112847222222222 27.0551215277778  0.338541666666667 26.7447916666667  C 0.564236111111111 26.4344618055556  0.832248263888889 26.2510850694444  1.142578125 26.1946614583333  L 9.013671875 25.009765625  C 9.40863715277778 23.7120225694444  9.95876736111111 22.4142795138889  10.6640625 21.1165364583333  C 9.53559027777778 19.5084635416667  8.02625868055556 17.5618489583333  6.13606770833333 15.2766927083333  C 5.85394965277778 14.9381510416667  5.712890625 14.599609375  5.712890625 14.2610677083333  C 5.712890625 13.9789496527778  5.83984375 13.6545138888889  6.09375 13.2877604166667  C 6.82725694444444 12.2721354166667  8.21668836805556 10.7557508680556  10.2620442708333 8.73860677083333  C 12.3074001736111 6.72146267361111  13.6404079861111 5.712890625  14.2610677083333 5.712890625  C 14.6278211805556 5.712890625  14.9945746527778 5.85394965277778  15.361328125 6.13606770833333  L 21.201171875 10.6640625  C 22.4424913194444 10.0151909722222  23.7261284722222 9.47916666666667  25.0520833333333 9.05598958333333  C 25.5034722222222 5.21918402777778  25.9125434027778 2.59548611111111  26.279296875 1.18489583333333  C 26.4767795138889 0.394965277777775  26.9845920138889 0  27.802734375 0  L 37.197265625 0  C 37.5922309027778 0  37.9378255208333 0.119900173611105  38.2340494791667 0.359700520833331  C 38.5302734375 0.599500868055549  38.6924913194444 0.902777777777775  38.720703125 1.26953125  L 39.9055989583333 9.05598958333333  C 41.2879774305556 9.50737847222222  42.5575086805556 10.029296875  43.7141927083333 10.6217447916667  L 49.7233072916667 6.09375  C 49.9772135416667 5.83984375  50.3157552083333 5.712890625  50.7389322916667 5.712890625  C 51.1056857638889 5.712890625  51.4583333333333 5.85394965277778  51.796875 6.13606770833333  C 55.4361979166667 9.49327256944444  57.763671875 11.8912760416667  58.779296875 13.330078125  C 58.9767795138889 13.5557725694444  59.0755208333333 13.8661024305556  59.0755208333333 14.2610677083333  C 59.0755208333333 14.599609375  58.9626736111111 14.9240451388889  58.7369791666667 15.234375  C 58.3138020833333 15.8268229166667  57.5944010416667 16.7648654513889  56.5787760416667 18.0485026041667  C 55.5631510416667 19.3321397569444  54.8014322916667 20.3266059027778  54.2936197916667 21.0319010416667  C 55.0271267361111 22.4424913194444  55.60546875 23.8248697916667  56.0286458333333 25.1790364583333  L 63.7727864583333 26.3639322916667  C 64.1395399305556 26.4203559027778  64.4357638888889 26.5966796875  64.6614583333333 26.8929036458333  Z " fill-rule="nonzero" fill="#71767c" stroke="none" transform="matrix(1 0 0 1 50 1612 )" />
  </g>
</svg>