<?xml version="1.0" encoding="utf-8"?>
<svg version="1.1" xmlns:xlink="http://www.w3.org/1999/xlink" width="65px" height="65px" xmlns="http://www.w3.org/2000/svg">
  <g transform="matrix(1 0 0 1 -50 -1428 )">
    <path d="M 37.5358072916667 53.7858072916667  C 37.7897135416667 53.5319010416667  37.9166666666667 53.2074652777778  37.9166666666667 52.8125  L 37.9166666666667 44.6875  C 37.9166666666667 44.2925347222222  37.7897135416667 43.9680989583333  37.5358072916667 43.7141927083333  C 37.2819010416667 43.4602864583333  36.9574652777778 43.3333333333333  36.5625 43.3333333333333  L 28.4375 43.3333333333333  C 28.0425347222222 43.3333333333333  27.7180989583333 43.4602864583333  27.4641927083333 43.7141927083333  C 27.2102864583333 43.9680989583333  27.0833333333333 44.2925347222222  27.0833333333333 44.6875  L 27.0833333333333 52.8125  C 27.0833333333333 53.2074652777778  27.2102864583333 53.5319010416667  27.4641927083333 53.7858072916667  C 27.7180989583333 54.0397135416667  28.0425347222222 54.1666666666667  28.4375 54.1666666666667  L 36.5625 54.1666666666667  C 36.9574652777778 54.1666666666667  37.2819010416667 54.0397135416667  37.5358072916667 53.7858072916667  Z M 48.2210286458333 27.802734375  C 48.5736762152778 26.7588975694444  48.75 25.6163194444444  48.75 24.375  C 48.75 21.8923611111111  47.9671223958333 19.5930989583333  46.4013671875 17.4772135416667  C 44.8356119791667 15.361328125  42.8819444444445 13.7250434027778  40.5403645833333 12.568359375  C 38.1987847222222 11.4116753472222  35.80078125 10.8333333333333  33.3463541666667 10.8333333333333  C 26.4908854166667 10.8333333333333  21.2575954861111 13.837890625  17.646484375 19.8470052083333  C 17.2233072916667 20.5240885416667  17.3361545138889 21.1165364583333  17.9850260416667 21.6243489583333  L 23.5709635416667 25.8561197916667  C 23.7684461805556 26.025390625  24.0364583333333 26.1100260416667  24.375 26.1100260416667  C 24.8263888888889 26.1100260416667  25.1790364583333 25.9407552083333  25.4329427083333 25.6022135416667  C 26.9281684027778 23.6838107638889  28.1412760416667 22.3860677083333  29.072265625 21.708984375  C 30.0314670138889 21.0319010416667  31.2445746527778 20.693359375  32.7115885416667 20.693359375  C 34.0657552083333 20.693359375  35.2718098958333 21.0601128472222  36.3297526041667 21.7936197916667  C 37.3876953125 22.5271267361111  37.9166666666667 23.359375  37.9166666666667 24.2903645833333  C 37.9166666666667 25.3624131944444  37.6345486111111 26.2228732638889  37.0703125 26.8717447916667  C 36.5060763888889 27.5206163194444  35.546875 28.1553819444444  34.1927083333333 28.7760416666667  C 32.4153645833333 29.5659722222222  30.7861328125 30.7861328125  29.3050130208333 32.4365234375  C 27.8238932291667 34.0869140625  27.0833333333333 35.8572048611111  27.0833333333333 37.7473958333333  L 27.0833333333333 39.2708333333333  C 27.0833333333333 39.6657986111111  27.2102864583333 39.990234375  27.4641927083333 40.244140625  C 27.7180989583333 40.498046875  28.0425347222222 40.625  28.4375 40.625  L 36.5625 40.625  C 36.9574652777778 40.625  37.2819010416667 40.498046875  37.5358072916667 40.244140625  C 37.7897135416667 39.990234375  37.9166666666667 39.6657986111111  37.9166666666667 39.2708333333333  C 37.9166666666667 38.7348090277778  38.2199435763889 38.0365668402778  38.8264973958333 37.1761067708333  C 39.4330512152778 36.3156467013889  40.2018229166667 35.6174045138889  41.1328125 35.0813802083333  C 42.0355902777778 34.5735677083333  42.7267795138889 34.1715494791667  43.2063802083333 33.8753255208333  C 43.6859809027778 33.5791015625  44.3348524305556 33.0853949652778  45.1529947916667 32.3942057291667  C 45.9711371527778 31.7030164930556  46.5988498263889 31.0259331597222  47.0361328125 30.3629557291667  C 47.4734157986111 29.6999782986111  47.8683810763889 28.8465711805556  48.2210286458333 27.802734375  Z M 60.6412760416667 16.1865234375  C 63.5470920138889 21.1659071180556  65 26.6037326388889  65 32.5  C 65 38.3962673611111  63.5470920138889 43.8340928819444  60.6412760416667 48.8134765625  C 57.7354600694445 53.7928602430556  53.7928602430556 57.7354600694444  48.8134765625 60.6412760416667  C 43.8340928819445 63.5470920138889  38.3962673611111 65  32.5 65  C 26.6037326388889 65  21.1659071180556 63.5470920138889  16.1865234375 60.6412760416667  C 11.2071397569444 57.7354600694444  7.26453993055556 53.7928602430556  4.35872395833333 48.8134765625  C 1.45290798611111 43.8340928819444  0 38.3962673611111  0 32.5  C 0 26.6037326388889  1.45290798611111 21.1659071180556  4.35872395833333 16.1865234375  C 7.26453993055556 11.2071397569444  11.2071397569444 7.26453993055555  16.1865234375 4.35872395833333  C 21.1659071180556 1.45290798611111  26.6037326388889 0  32.5 0  C 38.3962673611111 0  43.8340928819445 1.45290798611111  48.8134765625 4.35872395833333  C 53.7928602430556 7.26453993055555  57.7354600694445 11.2071397569444  60.6412760416667 16.1865234375  Z " fill-rule="nonzero" fill="#f6b70b" stroke="none" transform="matrix(1 0 0 1 50 1428 )" />
  </g>
</svg>