<?xml version="1.0" encoding="utf-8"?>
<svg version="1.1" xmlns:xlink="http://www.w3.org/1999/xlink" width="60px" height="70px" xmlns="http://www.w3.org/2000/svg">
  <g transform="matrix(1 0 0 1 -53 -1028 )">
    <path d="M 39.984375 54.3229166666667  C 47.328125 48.7326388888889  51 43.2638888888889  51 37.9166666666667  L 51 9  L 30 9  L 30 60.56640625  C 33.71875 58.65234375  37.046875 56.5711805555556  39.984375 54.3229166666667  Z M 59.109375 0.865885416666664  C 59.703125 1.4431423611111  60 2.1267361111111  60 2.91666666666666  L 60 37.9166666666667  C 60 40.5295138888889  59.4765625 43.1195746527778  58.4296875 45.6868489583333  C 57.3828125 48.2541232638889  56.0859375 50.5327690972222  54.5390625 52.5227864583333  C 52.9921875 54.5128038194444  51.1484375 56.4496527777778  49.0078125 58.3333333333333  C 46.8671875 60.2170138888889  44.890625 61.7816840277778  43.078125 63.02734375  C 41.265625 64.2730034722222  39.375 65.4503038194444  37.40625 66.5592447916667  C 35.4375 67.6681857638889  34.0390625 68.4201388888889  33.2109375 68.8151041666667  C 32.3828125 69.2100694444444  31.71875 69.5138888888889  31.21875 69.7265625  C 30.84375 69.9088541666667  30.4375 70  30 70  C 29.5625 70  29.15625 69.9088541666667  28.78125 69.7265625  C 28.28125 69.5138888888889  27.6171875 69.2100694444444  26.7890625 68.8151041666667  C 25.9609375 68.4201388888889  24.5625 67.6681857638889  22.59375 66.5592447916667  C 20.625 65.4503038194444  18.734375 64.2730034722222  16.921875 63.02734375  C 15.109375 61.7816840277778  13.1328125 60.2170138888889  10.9921875 58.3333333333333  C 8.8515625 56.4496527777778  7.0078125 54.5128038194444  5.4609375 52.5227864583333  C 3.9140625 50.5327690972222  2.6171875 48.2541232638889  1.5703125 45.6868489583333  C 0.5234375 43.1195746527778  0 40.5295138888889  0 37.9166666666667  L 0 2.91666666666666  C 0 2.1267361111111  0.296875 1.4431423611111  0.890625 0.865885416666664  C 1.484375 0.288628472222219  2.1875 0  3 0  L 57 0  C 57.8125 0  58.515625 0.288628472222219  59.109375 0.865885416666664  Z " fill-rule="nonzero" fill="#fe7e01" stroke="none" transform="matrix(1 0 0 1 53 1028 )" />
  </g>
</svg>