<?xml version="1.0" encoding="utf-8"?>
<svg version="1.1" xmlns:xlink="http://www.w3.org/1999/xlink" width="65px" height="65px" xmlns="http://www.w3.org/2000/svg">
  <g transform="matrix(1 0 0 1 -50 -858 )">
    <path d="M 53.5379464285714 34.8697916666667  C 58.0840773809524 29.5659722222222  60.3571428571429 24.5442708333333  60.3571428571429 19.8046875  C 60.3571428571429 17.51953125  60.0971912202381 15.5023871527778  59.5772879464286 13.7532552083333  C 59.0573846726191 12.0041232638889  58.3923921130952 10.6146918402778  57.5823102678571 9.5849609375  C 56.7722284226191 8.55523003472222  55.7868303571429 7.71592881944444  54.6261160714286 7.06705729166667  C 53.4654017857143 6.41818576388888  52.3288690476191 5.98090277777778  51.2165178571429 5.75520833333333  C 50.1041666666667 5.52951388888888  48.9192708333333 5.41666666666667  47.6618303571429 5.41666666666667  C 46.4043898809524 5.41666666666667  45.0502232142857 5.7763671875  43.5993303571429 6.49576822916667  C 42.1484375 7.21516927083333  40.8124069940476 8.11794704861111  39.5912388392857 9.2041015625  C 38.3700706845238 10.2902560763889  37.32421875 11.3058810763889  36.4536830357143 12.2509765625  C 35.5831473214286 13.1960720486111  34.8577008928571 14.0635850694444  34.27734375 14.853515625  C 33.8420758928571 15.4741753472222  33.2496279761905 15.7845052083333  32.5 15.7845052083333  C 31.7503720238095 15.7845052083333  31.1579241071429 15.4741753472222  30.72265625 14.853515625  C 30.1422991071429 14.0635850694444  29.4168526785714 13.1960720486111  28.5463169642857 12.2509765625  C 27.67578125 11.3058810763889  26.6299293154762 10.2902560763889  25.4087611607143 9.2041015625  C 24.1875930059524 8.11794704861111  22.8515625 7.21516927083333  21.4006696428571 6.49576822916667  C 19.9497767857143 5.7763671875  18.5956101190476 5.41666666666667  17.3381696428571 5.41666666666667  C 16.0807291666667 5.41666666666667  14.8958333333333 5.52951388888888  13.7834821428571 5.75520833333333  C 12.671130952381 5.98090277777778  11.5345982142857 6.41818576388888  10.3738839285714 7.06705729166667  C 9.21316964285714 7.71592881944444  8.22777157738095 8.55523003472222  7.41768973214286 9.5849609375  C 6.60760788690476 10.6146918402778  5.94261532738095 12.0041232638889  5.42271205357143 13.7532552083333  C 4.90280877976191 15.5023871527778  4.64285714285714 17.51953125  4.64285714285714 19.8046875  C 4.64285714285714 24.5442708333333  6.9038318452381 29.5518663194444  11.42578125 34.8274739583333  L 32.5 58.525390625  L 53.5379464285714 34.8697916666667  Z M 60.3934151785714 5.24739583333333  C 63.4644717261905 8.74565972222222  65 13.5980902777778  65 19.8046875  C 65 26.0394965277778  62.2312127976191 32.3871527777778  56.6936383928571 38.84765625  L 34.0959821428571 64.23828125  C 33.6607142857143 64.74609375  33.1287202380952 65  32.5 65  C 31.8712797619048 65  31.3392857142857 64.74609375  30.9040178571429 64.23828125  L 8.27008928571428 38.7630208333333  C 8.02827380952381 38.5373263888889  7.69577752976191 38.1705729166667  7.27260044642857 37.6627604166667  C 6.84942336309524 37.1549479166667  6.17838541666667 36.2310112847222  5.25948660714286 34.8909505208333  C 4.34058779761905 33.5508897569444  3.51841517857143 32.1755642361111  2.79296875 30.7649739583333  C 2.06752232142857 29.3543836805556  1.42066592261905 27.6475694444444  0.852399553571429 25.64453125  C 0.28413318452381 23.6414930555556  0 21.6948784722222  0 19.8046875  C 0 13.5980902777778  1.53552827380952 8.74565972222222  4.60658482142857 5.24739583333333  C 7.67764136904762 1.74913194444444  11.9215029761905 0  17.3381696428571 0  C 18.8374255952381 0  20.3669084821429 0.303276909722218  21.9266183035714 0.909830729166669  C 23.486328125 1.51638454861111  24.9372209821429 2.33452690972222  26.279296875 3.3642578125  C 27.6213727678571 4.39398871527778  28.7760416666667 5.36024305555555  29.7433035714286 6.26302083333333  C 30.7105654761905 7.16579861111111  31.6294642857143 8.125  32.5 9.140625  C 33.3705357142857 8.125  34.2894345238095 7.16579861111111  35.2566964285714 6.26302083333333  C 36.2239583333333 5.36024305555555  37.3786272321429 4.39398871527778  38.720703125 3.3642578125  C 40.0627790178571 2.33452690972222  41.513671875 1.51638454861111  43.0733816964286 0.909830729166669  C 44.6330915178571 0.303276909722218  46.1625744047619 0  47.6618303571429 0  C 53.0784970238095 0  57.3223586309524 1.74913194444444  60.3934151785714 5.24739583333333  Z " fill-rule="nonzero" fill="#f6b60c" stroke="none" transform="matrix(1 0 0 1 50 858 )" />
  </g>
</svg>