<?xml version="1.0" encoding="utf-8"?>
<svg version="1.1" xmlns:xlink="http://www.w3.org/1999/xlink" width="15px" height="25px" xmlns="http://www.w3.org/2000/svg">
  <g transform="matrix(1 0 0 1 -287 -77 )">
    <path d="M 14.7422680412371 11.9238476953908  C 14.914089347079 12.0908483633935  15 12.2828991315965  15 12.5  C 15 12.7171008684035  14.914089347079 12.9091516366065  14.7422680412371 13.0761523046092  L 2.7319587628866 24.749498997996  C 2.56013745704467 24.9164996659987  2.36254295532646 25  2.13917525773196 25  C 1.91580756013746 25  1.71821305841924 24.9164996659987  1.54639175257732 24.749498997996  L 0.257731958762887 23.496993987976  C 0.0859106529209623 23.3299933199733  0 23.1379425517702  0 22.9208416833667  C 0 22.7037408149633  0.0859106529209623 22.5116900467602  0.257731958762887 22.3446893787575  L 10.3865979381443 12.5  L 0.257731958762887 2.65531062124249  C 0.0859106529209623 2.48830995323981  0 2.29625918503674  0 2.07915831663327  C 0 1.86205744822979  0.0859106529209623 1.67000668002672  0.257731958762887 1.50300601202405  L 1.54639175257732 0.250501002004008  C 1.71821305841924 0.0835003340013352  1.91580756013746 0  2.13917525773196 0  C 2.36254295532646 0  2.56013745704467 0.0835003340013352  2.7319587628866 0.250501002004008  L 14.7422680412371 11.9238476953908  Z " fill-rule="nonzero" fill="#ffffff" stroke="none" transform="matrix(1 0 0 1 287 77 )" />
  </g>
</svg>