<?xml version="1.0" encoding="utf-8"?>
<svg version="1.1" xmlns:xlink="http://www.w3.org/1999/xlink" width="50px" height="50px" xmlns="http://www.w3.org/2000/svg">
  <g transform="matrix(1 0 0 1 -69 -366 )">
    <path d="M 30.6640625 30.6640625  C 33.2982772435897 28.0298477564103  34.6153846153846 24.8597756410256  34.6153846153846 21.1538461538462  C 34.6153846153846 17.4479166666667  33.2982772435897 14.277844551282  30.6640625 11.6436298076923  C 28.0298477564103 9.00941506410256  24.8597756410256 7.69230769230769  21.1538461538462 7.69230769230769  C 17.4479166666667 7.69230769230769  14.2778445512821 9.00941506410256  11.6436298076923 11.6436298076923  C 9.00941506410256 14.277844551282  7.69230769230769 17.4479166666667  7.69230769230769 21.1538461538462  C 7.69230769230769 24.8597756410256  9.00941506410256 28.0298477564103  11.6436298076923 30.6640625  C 14.2778445512821 33.2982772435897  17.4479166666667 34.6153846153846  21.1538461538462 34.6153846153846  C 24.8597756410256 34.6153846153846  28.0298477564103 33.2982772435897  30.6640625 30.6640625  Z M 48.8882211538462 43.4495192307692  C 49.6294070512821 44.1907051282051  50 45.0921474358974  50 46.1538461538462  C 50 47.1955128205128  49.619391025641 48.0969551282051  48.8581730769231 48.8581730769231  C 48.0969551282051 49.619391025641  47.1955128205128 50  46.1538461538462 50  C 45.0721153846154 50  44.1706730769231 49.619391025641  43.4495192307692 48.8581730769231  L 33.1430288461538 38.5817307692308  C 29.5572916666667 41.0657051282051  25.5608974358974 42.3076923076923  21.1538461538462 42.3076923076923  C 18.2892628205128 42.3076923076923  15.5498798076923 41.7518028846154  12.9356971153846 40.6400240384615  C 10.3215144230769 39.5282451923077  8.06790865384615 38.0258413461538  6.17487980769231 36.1328125  C 4.28185096153846 34.2397836538462  2.77944711538462 31.9861778846154  1.66766826923077 29.3719951923077  C 0.555889423076923 26.7578125  0 24.0184294871795  0 21.1538461538462  C 0 18.2892628205128  0.555889423076923 15.5498798076923  1.66766826923077 12.9356971153846  C 2.77944711538462 10.3215144230769  4.28185096153846 8.06790865384616  6.17487980769231 6.17487980769231  C 8.06790865384615 4.28185096153846  10.3215144230769 2.77944711538461  12.9356971153846 1.66766826923077  C 15.5498798076923 0.555889423076922  18.2892628205128 0  21.1538461538462 0  C 24.0184294871795 0  26.7578125 0.555889423076922  29.3719951923077 1.66766826923077  C 31.9861778846154 2.77944711538461  34.2397836538462 4.28185096153846  36.1328125 6.17487980769231  C 38.0258413461538 8.06790865384616  39.5282451923077 10.3215144230769  40.6400240384615 12.9356971153846  C 41.7518028846154 15.5498798076923  42.3076923076923 18.2892628205128  42.3076923076923 21.1538461538462  C 42.3076923076923 25.5608974358974  41.0657051282051 29.5572916666667  38.5817307692308 33.1430288461538  L 48.8882211538462 43.4495192307692  Z " fill-rule="nonzero" fill="#8a8a8b" stroke="none" transform="matrix(1 0 0 1 69 366 )" />
  </g>
</svg>