<?xml version="1.0" encoding="utf-8"?>
<svg version="1.1" xmlns:xlink="http://www.w3.org/1999/xlink" width="12px" height="12px" viewBox="493 342.5  12 12" xmlns="http://www.w3.org/2000/svg">
  <path d="M 499 342.5  C 502.36 342.5  505 345.14  505 348.5  C 505 351.86  502.36 354.5  499 354.5  C 495.64 354.5  493 351.86  493 348.5  C 493 345.14  495.64 342.5  499 342.5  Z " fill-rule="nonzero" fill="#ffffff" stroke="none" />
  <path d="M 499 343  C 502.08 343  504.5 345.42  504.5 348.5  C 504.5 351.58  502.08 354  499 354  C 495.92 354  493.5 351.58  493.5 348.5  C 493.5 345.42  495.92 343  499 343  Z " stroke-width="1" stroke="#797979" fill="none" />
  <path d="M 499 351.5  C 497.32 351.5  496 350.18  496 348.5  C 496 346.82  497.32 345.5  499 345.5  C 500.68 345.5  502 346.82  502 348.5  C 502 350.18  500.68 351.5  499 351.5  " fill-rule="nonzero" fill="#797979" stroke="none" />
</svg>