<?xml version="1.0" encoding="utf-8"?>
<svg version="1.1" xmlns:xlink="http://www.w3.org/1999/xlink" width="12px" height="12px" viewBox="493 400.5  12 12" xmlns="http://www.w3.org/2000/svg">
  <path d="M 499 400.5  C 502.36 400.5  505 403.14  505 406.5  C 505 409.86  502.36 412.5  499 412.5  C 495.64 412.5  493 409.86  493 406.5  C 493 403.14  495.64 400.5  499 400.5  Z " fill-rule="nonzero" fill="#ffffff" stroke="none" />
  <path d="M 499 401  C 502.08 401  504.5 403.42  504.5 406.5  C 504.5 409.58  502.08 412  499 412  C 495.92 412  493.5 409.58  493.5 406.5  C 493.5 403.42  495.92 401  499 401  Z " stroke-width="1" stroke="#797979" fill="none" />
  <path d="M 499 409.5  C 497.32 409.5  496 408.18  496 406.5  C 496 404.82  497.32 403.5  499 403.5  C 500.68 403.5  502 404.82  502 406.5  C 502 408.18  500.68 409.5  499 409.5  " fill-rule="nonzero" fill="#797979" stroke="none" />
</svg>