<?xml version="1.0" encoding="utf-8"?>
<svg version="1.1" xmlns:xlink="http://www.w3.org/1999/xlink" width="12px" height="12px" viewBox="493 461.5  12 12" xmlns="http://www.w3.org/2000/svg">
  <path d="M 499 461.5  C 502.36 461.5  505 464.14  505 467.5  C 505 470.86  502.36 473.5  499 473.5  C 495.64 473.5  493 470.86  493 467.5  C 493 464.14  495.64 461.5  499 461.5  Z " fill-rule="nonzero" fill="#ffffff" stroke="none" />
  <path d="M 499 462  C 502.08 462  504.5 464.42  504.5 467.5  C 504.5 470.58  502.08 473  499 473  C 495.92 473  493.5 470.58  493.5 467.5  C 493.5 464.42  495.92 462  499 462  Z " stroke-width="1" stroke="#797979" fill="none" />
  <path d="M 499 470.5  C 497.32 470.5  496 469.18  496 467.5  C 496 465.82  497.32 464.5  499 464.5  C 500.68 464.5  502 465.82  502 467.5  C 502 469.18  500.68 470.5  499 470.5  " fill-rule="nonzero" fill="#797979" stroke="none" />
</svg>