<?xml version="1.0" encoding="utf-8"?>
<svg version="1.1" xmlns:xlink="http://www.w3.org/1999/xlink" width="12px" height="12px" viewBox="493 522.5  12 12" xmlns="http://www.w3.org/2000/svg">
  <path d="M 499 522.5  C 502.36 522.5  505 525.14  505 528.5  C 505 531.86  502.36 534.5  499 534.5  C 495.64 534.5  493 531.86  493 528.5  C 493 525.14  495.64 522.5  499 522.5  Z " fill-rule="nonzero" fill="#ffffff" stroke="none" />
  <path d="M 499 523  C 502.08 523  504.5 525.42  504.5 528.5  C 504.5 531.58  502.08 534  499 534  C 495.92 534  493.5 531.58  493.5 528.5  C 493.5 525.42  495.92 523  499 523  Z " stroke-width="1" stroke="#797979" fill="none" />
  <path d="M 499 531.5  C 497.32 531.5  496 530.18  496 528.5  C 496 526.82  497.32 525.5  499 525.5  C 500.68 525.5  502 526.82  502 528.5  C 502 530.18  500.68 531.5  499 531.5  " fill-rule="nonzero" fill="#797979" stroke="none" />
</svg>