<?xml version="1.0" encoding="utf-8"?>
<svg version="1.1" xmlns:xlink="http://www.w3.org/1999/xlink" width="31px" height="31px" xmlns="http://www.w3.org/2000/svg">
  <defs>
    <mask fill="white" id="clip14">
      <path d="M 0 15.5  C 0 6.81999999999999  6.81999999999999 0  15.5 0  C 18.8468560933193 0  21.917178800133 1.01395575052069  24.4266309623357 2.75753009345684  C 28.4253895389811 5.53587867600743  31 10.1668560933193  31 15.5  C 31 24.18  24.18 31  15.5 31  C 11.657775686113 31  8.18000218719206 29.6636803451245  5.4968797436299 27.4212412757663  C 2.11853859019591 24.5977681203544  0 20.337775686113  0 15.5  Z " fill-rule="evenodd" />
    </mask>
  </defs>
  <g transform="matrix(1 0 0 1 -485 -831 )">
    <path d="M 0 15.5  C 0 6.81999999999999  6.81999999999999 0  15.5 0  C 18.8468560933193 0  21.917178800133 1.01395575052069  24.4266309623357 2.75753009345684  C 28.4253895389811 5.53587867600743  31 10.1668560933193  31 15.5  C 31 24.18  24.18 31  15.5 31  C 11.657775686113 31  8.18000218719206 29.6636803451245  5.4968797436299 27.4212412757663  C 2.11853859019591 24.5977681203544  0 20.337775686113  0 15.5  Z " fill-rule="nonzero" fill="#00ffff" stroke="none" transform="matrix(1 0 0 1 485 831 )" />
    <path d="M 0 15.5  C 0 6.81999999999999  6.81999999999999 0  15.5 0  C 18.8468560933193 0  21.917178800133 1.01395575052069  24.4266309623357 2.75753009345684  C 28.4253895389811 5.53587867600743  31 10.1668560933193  31 15.5  C 31 24.18  24.18 31  15.5 31  C 11.657775686113 31  8.18000218719206 29.6636803451245  5.4968797436299 27.4212412757663  C 2.11853859019591 24.5977681203544  0 20.337775686113  0 15.5  Z " stroke-width="2" stroke="#797979" fill="none" transform="matrix(1 0 0 1 485 831 )" mask="url(#clip14)" />
  </g>
</svg>