<?xml version="1.0" encoding="utf-8"?>
<svg version="1.1" xmlns:xlink="http://www.w3.org/1999/xlink" width="493px" height="89px" xmlns="http://www.w3.org/2000/svg">
  <defs>
    <mask fill="white" id="clip16">
      <path d="M 0 89  L 0 0  L 198.999999999999 0  L 255.923076923076 0  L 493 0  L 493 89  L 249.769230769229 89  L 0 89  Z " fill-rule="evenodd" />
    </mask>
  </defs>
  <g transform="matrix(1 0 0 1 -1741 -1143 )">
    <path d="M 0 89  L 0 0  L 198.999999999999 0  L 255.923076923076 0  L 493 0  L 493 89  L 249.769230769229 89  L 0 89  Z " fill-rule="nonzero" fill="#ffffff" stroke="none" transform="matrix(1 0 0 1 1741 1143 )" />
    <path d="M 0 89  L 0 0  L 198.999999999999 0  L 255.923076923076 0  L 493 0  L 493 89  L 249.769230769229 89  L 0 89  Z " stroke-width="2" stroke="#797979" fill="none" transform="matrix(1 0 0 1 1741 1143 )" mask="url(#clip16)" />
  </g>
</svg>