<?xml version="1.0" encoding="utf-8"?>
<svg version="1.1" xmlns:xlink="http://www.w3.org/1999/xlink" width="493px" height="163px" xmlns="http://www.w3.org/2000/svg">
  <defs>
    <mask fill="white" id="clip4">
      <path d="M 0 163  L 0 0  L 246.857142857141 0  L 342.043478260871 0  L 362.913043478259 0  L 493 0  L 493 163  L 328.130434782607 163  L 292.571428571426 163  L 0 163  Z " fill-rule="evenodd" />
    </mask>
  </defs>
  <g transform="matrix(1 0 0 1 -1516 -576 )">
    <path d="M 0 163  L 0 0  L 246.857142857141 0  L 342.043478260871 0  L 362.913043478259 0  L 493 0  L 493 163  L 328.130434782607 163  L 292.571428571426 163  L 0 163  Z " fill-rule="nonzero" fill="#ffffff" stroke="none" transform="matrix(1 0 0 1 1516 576 )" />
    <path d="M 0 163  L 0 0  L 246.857142857141 0  L 342.043478260871 0  L 362.913043478259 0  L 493 0  L 493 163  L 328.130434782607 163  L 292.571428571426 163  L 0 163  Z " stroke-width="2" stroke="#797979" fill="none" transform="matrix(1 0 0 1 1516 576 )" mask="url(#clip4)" />
  </g>
</svg>