<?xml version="1.0" encoding="utf-8"?>
<svg version="1.1" xmlns:xlink="http://www.w3.org/1999/xlink" width="138px" height="138px" xmlns="http://www.w3.org/2000/svg">
  <g transform="matrix(1 0 0 1 -489 -1972 )">
    <path d="M 58 63.25  L 58 86.25  L 80.5 74.75  L 58 63.25  Z M 46 56.15234375  L 92 33.15234375  L 92 81.84765625  L 46 104.84765625  L 46 56.15234375  Z M 111.31640625 93.52734375  C 115.688802083333 86.0403645833333  117.875 77.8645833333333  117.875 69  C 117.875 60.1354166666667  115.688802083333 51.9596354166667  111.31640625 44.47265625  C 106.944010416667 36.9856770833333  101.014322916667 31.0559895833333  93.52734375 26.68359375  C 86.0403645833333 22.3111979166667  77.8645833333333 20.125  69 20.125  C 60.1354166666667 20.125  51.9596354166667 22.3111979166667  44.47265625 26.68359375  C 36.9856770833333 31.0559895833333  31.0559895833333 36.9856770833333  26.68359375 44.47265625  C 22.3111979166667 51.9596354166667  20.125 60.1354166666667  20.125 69  C 20.125 77.8645833333333  22.3111979166667 86.0403645833333  26.68359375 93.52734375  C 31.0559895833333 101.014322916667  36.9856770833333 106.944010416667  44.47265625 111.31640625  C 51.9596354166667 115.688802083333  60.1354166666667 117.875  69 117.875  C 77.8645833333333 117.875  86.0403645833333 115.688802083333  93.52734375 111.31640625  C 101.014322916667 106.944010416667  106.944010416667 101.014322916667  111.31640625 93.52734375  Z M 128.74609375 34.365234375  C 134.915364583333 44.9368489583333  138 56.4817708333333  138 69  C 138 81.5182291666667  134.915364583333 93.0631510416666  128.74609375 103.634765625  C 122.576822916667 114.206380208333  114.206380208333 122.576822916667  103.634765625 128.74609375  C 93.0631510416667 134.915364583333  81.5182291666667 138  69 138  C 56.4817708333333 138  44.9368489583333 134.915364583333  34.365234375 128.74609375  C 23.7936197916667 122.576822916667  15.4231770833333 114.206380208333  9.25390625 103.634765625  C 3.08463541666667 93.0631510416666  0 81.5182291666667  0 69  C 0 56.4817708333333  3.08463541666667 44.9368489583333  9.25390625 34.365234375  C 15.4231770833333 23.7936197916667  23.7936197916667 15.4231770833333  34.365234375 9.25390624999999  C 44.9368489583333 3.08463541666665  56.4817708333333 0  69 0  C 81.5182291666667 0  93.0631510416667 3.08463541666665  103.634765625 9.25390624999999  C 114.206380208333 15.4231770833333  122.576822916667 23.7936197916667  128.74609375 34.365234375  Z " fill-rule="nonzero" fill="#b7bbbf" stroke="none" transform="matrix(1 0 0 1 489 1972 )" />
  </g>
</svg>