<?xml version="1.0" encoding="utf-8"?>
<svg version="1.1" xmlns:xlink="http://www.w3.org/1999/xlink" width="138px" height="101px" xmlns="http://www.w3.org/2000/svg">
  <g transform="matrix(1 0 0 1 -110 -1991 )">
    <path d="M 131.9625 56.2745028409091  C 135.9875 61.2718986742424  138 66.9985795454545  138 73.4545454545455  C 138 81.0582386363636  135.3046875 87.5500710227273  129.9140625 92.9300426136364  C 124.5234375 98.3100142045455  118.01875 101  110.4 101  L 32.2 101  C 23.3354166666667 101  15.7526041666667 97.8557054924242  9.4515625 91.5671164772727  C 3.15052083333333 85.2785274621212  0 77.7107007575758  0 68.8636363636364  C 0 62.5511363636364  1.70104166666667 56.7766335227273  5.103125 51.5401278409091  C 8.50520833333333 46.3036221590909  12.9854166666667 42.3941761363636  18.54375 39.8117897727273  C 18.4479166666667 38.4727746212121  18.4 37.4446022727273  18.4 36.7272727272727  C 18.4 26.5890151515151  21.99375 17.9332386363636  29.18125 10.7599431818182  C 36.36875 3.58664772727273  45.0416666666667 0  55.2 0  C 62.7708333333333 0  69.6348958333333 2.10416666666666  75.7921875 6.3125  C 81.9494791666667 10.5208333333333  86.4416666666667 16.0203598484848  89.26875 22.8110795454545  C 92.6229166666667 19.8461174242424  96.6 18.3636363636364  101.2 18.3636363636364  C 106.279166666667 18.3636363636364  110.615625 20.1569602272727  114.209375 23.7436079545455  C 117.803125 27.3302556818182  119.6 31.6581439393939  119.6 36.7272727272727  C 119.6 40.3139204545455  118.617708333333 43.6136363636364  116.653125 46.6264204545455  C 122.834375 48.0610795454545  127.9375 51.2771070075757  131.9625 56.2745028409091  Z " fill-rule="nonzero" fill="#018dc9" stroke="none" transform="matrix(1 0 0 1 110 1991 )" />
  </g>
</svg>