<?xml version="1.0" encoding="utf-8"?>
<svg version="1.1" xmlns:xlink="http://www.w3.org/1999/xlink" width="82px" height="82px" xmlns="http://www.w3.org/2000/svg">
  <defs>
    <mask fill="white" id="clip34">
      <path d="M 0 36  C 0 15.8400000000001  15.8399999999999 0  36 0  C 47.2134741792511 0  57.090404957474 4.90065913710328  63.6483459170922 12.7195309937333  C 68.8805145731483 18.9577171112799  72 27.053474179251  72 36  C 72 52.7090668447081  61.1187568628463 66.4505219247385  45.9152683855168 70.6653674431122  C 42.7752831936373 71.535861904531  39.4509331552918 72  36 72  C 15.8399999999999 72  0 56.1599999999999  0 36  Z " fill-rule="evenodd" />
    </mask>
    <filter x="1451px" y="2002px" width="82px" height="82px" filterUnits="userSpaceOnUse" id="filter35">
      <feOffset dx="1" dy="1" in="SourceAlpha" result="shadowOffsetInner" />
      <feGaussianBlur stdDeviation="2.5" in="shadowOffsetInner" result="shadowGaussian" />
      <feComposite in2="shadowGaussian" operator="atop" in="SourceAlpha" result="shadowComposite" />
      <feColorMatrix type="matrix" values="0 0 0 0 0  0 0 0 0 0  0 0 0 0 0  0 0 0 0.698039215686274 0  " in="shadowComposite" />
    </filter>
    <g id="widget36">
      <path d="M 0 36  C 0 15.8400000000001  15.8399999999999 0  36 0  C 47.2134741792511 0  57.090404957474 4.90065913710328  63.6483459170922 12.7195309937333  C 68.8805145731483 18.9577171112799  72 27.053474179251  72 36  C 72 52.7090668447081  61.1187568628463 66.4505219247385  45.9152683855168 70.6653674431122  C 42.7752831936373 71.535861904531  39.4509331552918 72  36 72  C 15.8399999999999 72  0 56.1599999999999  0 36  Z " fill-rule="nonzero" fill="#009dd9" stroke="none" transform="matrix(1 0 0 1 1455 2006 )" />
      <path d="M 0 36  C 0 15.8400000000001  15.8399999999999 0  36 0  C 47.2134741792511 0  57.090404957474 4.90065913710328  63.6483459170922 12.7195309937333  C 68.8805145731483 18.9577171112799  72 27.053474179251  72 36  C 72 52.7090668447081  61.1187568628463 66.4505219247385  45.9152683855168 70.6653674431122  C 42.7752831936373 71.535861904531  39.4509331552918 72  36 72  C 15.8399999999999 72  0 56.1599999999999  0 36  Z " stroke-width="2" stroke="#ffffff" fill="none" transform="matrix(1 0 0 1 1455 2006 )" mask="url(#clip34)" />
    </g>
  </defs>
  <g transform="matrix(1 0 0 1 -1451 -2002 )">
    <use xlink:href="#widget36" filter="url(#filter35)" />
    <use xlink:href="#widget36" />
  </g>
</svg>