<?xml version="1.0" encoding="utf-8"?>
<svg version="1.1" xmlns:xlink="http://www.w3.org/1999/xlink" width="806px" height="20px" xmlns="http://www.w3.org/2000/svg">
  <defs>
    <mask fill="white" id="clip3">
      <path d="M 0 20  L 0 0  L 485.563218390807 0  L 806 0  L 806 20  L 360.275862068966 20  L 0 20  Z " fill-rule="evenodd" />
    </mask>
  </defs>
  <g transform="matrix(1 0 0 1 -720 -241 )">
    <path d="M 0 20  L 0 0  L 485.563218390807 0  L 806 0  L 806 20  L 360.275862068966 20  L 0 20  Z " fill-rule="nonzero" fill="#eeeeee" stroke="none" transform="matrix(1 0 0 1 720 241 )" />
    <path d="M 0 20  L 0 0  L 485.563218390807 0  L 806 0  L 806 20  L 360.275862068966 20  L 0 20  Z " stroke-width="2" stroke="#797979" fill="none" transform="matrix(1 0 0 1 720 241 )" mask="url(#clip3)" />
  </g>
</svg>