<?xml version="1.0" encoding="utf-8"?>
<svg version="1.1" xmlns:xlink="http://www.w3.org/1999/xlink" width="12px" height="12px" viewBox="819 451  12 12" xmlns="http://www.w3.org/2000/svg">
  <path d="M 825 451  C 828.36 451  831 453.64  831 457  C 831 460.36  828.36 463  825 463  C 821.64 463  819 460.36  819 457  C 819 453.64  821.64 451  825 451  Z " fill-rule="nonzero" fill="#ffffff" stroke="none" />
  <path d="M 825 451.5  C 828.08 451.5  830.5 453.92  830.5 457  C 830.5 460.08  828.08 462.5  825 462.5  C 821.92 462.5  819.5 460.08  819.5 457  C 819.5 453.92  821.92 451.5  825 451.5  Z " stroke-width="1" stroke="#797979" fill="none" />
  <path d="M 825 460  C 823.32 460  822 458.68  822 457  C 822 455.32  823.32 454  825 454  C 826.68 454  828 455.32  828 457  C 828 458.68  826.68 460  825 460  " fill-rule="nonzero" fill="#797979" stroke="none" />
</svg>