<?xml version="1.0" encoding="utf-8"?>
<svg version="1.1" xmlns:xlink="http://www.w3.org/1999/xlink" width="12px" height="12px" viewBox="980 450  12 12" xmlns="http://www.w3.org/2000/svg">
  <path d="M 986 450  C 989.36 450  992 452.64  992 456  C 992 459.36  989.36 462  986 462  C 982.64 462  980 459.36  980 456  C 980 452.64  982.64 450  986 450  Z " fill-rule="nonzero" fill="#ffffff" stroke="none" />
  <path d="M 986 450.5  C 989.08 450.5  991.5 452.92  991.5 456  C 991.5 459.08  989.08 461.5  986 461.5  C 982.92 461.5  980.5 459.08  980.5 456  C 980.5 452.92  982.92 450.5  986 450.5  Z " stroke-width="1" stroke="#797979" fill="none" />
  <path d="M 986 459  C 984.32 459  983 457.68  983 456  C 983 454.32  984.32 453  986 453  C 987.68 453  989 454.32  989 456  C 989 457.68  987.68 459  986 459  " fill-rule="nonzero" fill="#797979" stroke="none" />
</svg>