<?xml version="1.0" encoding="utf-8"?>
<svg version="1.1" xmlns:xlink="http://www.w3.org/1999/xlink" width="32px" height="40px" xmlns="http://www.w3.org/2000/svg">
  <g transform="matrix(1 0 0 1 -1197 -441 )">
    <path d="M 31.7875 28.9192708333333  C 31.9291666666667 30.2300347222222  32 31.6232638888889  32 33.0989583333333  C 32 34.9913194444444  31.4791666666667 36.6145833333333  30.4375 37.96875  C 29.3958333333333 39.3229166666667  28.1416666666667 40  26.675 40  L 5.325 40  C 3.85833333333333 40  2.60416666666667 39.3229166666667  1.5625 37.96875  C 0.520833333333333 36.6145833333333  0 34.9913194444444  0 33.0989583333333  C 0 31.6232638888889  0.0708333333333335 30.2300347222222  0.2125 28.9192708333333  C 0.354166666666667 27.6085069444444  0.616666666666667 26.2890625  1 24.9609375  C 1.38333333333333 23.6328125  1.87083333333333 22.4956597222222  2.4625 21.5494791666667  C 3.05416666666667 20.6032986111111  3.8375 19.8307291666667  4.8125 19.2317708333333  C 5.7875 18.6328125  6.90833333333333 18.3333333333333  8.175 18.3333333333333  C 10.3583333333333 20.5555555555556  12.9666666666667 21.6666666666667  16 21.6666666666667  C 19.0333333333333 21.6666666666667  21.6416666666667 20.5555555555556  23.825 18.3333333333333  C 25.0916666666667 18.3333333333333  26.2125 18.6328125  27.1875 19.2317708333333  C 28.1625 19.8307291666667  28.9458333333333 20.6032986111111  29.5375 21.5494791666667  C 30.1291666666667 22.4956597222222  30.6166666666667 23.6328125  31 24.9609375  C 31.3833333333333 26.2890625  31.6458333333333 27.6085069444444  31.7875 28.9192708333333  Z M 22.7875 2.9296875  C 24.6625 4.8828125  25.6 7.23958333333333  25.6 10  C 25.6 12.7604166666667  24.6625 15.1171875  22.7875 17.0703125  C 20.9125 19.0234375  18.65 20  16 20  C 13.35 20  11.0875 19.0234375  9.2125 17.0703125  C 7.3375 15.1171875  6.4 12.7604166666667  6.4 10  C 6.4 7.23958333333333  7.3375 4.8828125  9.2125 2.9296875  C 11.0875 0.9765625  13.35 0  16 0  C 18.65 0  20.9125 0.9765625  22.7875 2.9296875  Z " fill-rule="nonzero" fill="#000000" stroke="none" transform="matrix(1 0 0 1 1197 441 )" />
  </g>
</svg>