<?xml version="1.0" encoding="utf-8"?>
<svg version="1.1" xmlns:xlink="http://www.w3.org/1999/xlink" width="32px" height="40px" xmlns="http://www.w3.org/2000/svg">
  <g transform="matrix(1 0 0 1 -1200 -561 )">
    <path d="M 8.88888888888889 12.7272727272727  L 8.88888888888889 18.1818181818182  L 23.1111111111111 18.1818181818182  L 23.1111111111111 12.7272727272727  C 23.1111111111111 10.719696969697  22.4166666666667 9.00568181818182  21.0277777777778 7.58522727272727  C 19.6388888888889 6.16477272727273  17.962962962963 5.45454545454545  16 5.45454545454545  C 14.037037037037 5.45454545454545  12.3611111111111 6.16477272727273  10.9722222222222 7.58522727272727  C 9.58333333333333 9.00568181818182  8.88888888888889 10.719696969697  8.88888888888889 12.7272727272727  Z M 31.2222222222222 18.9772727272727  C 31.7407407407407 19.5075757575758  32 20.1515151515151  32 20.9090909090909  L 32 37.2727272727273  C 32 38.030303030303  31.7407407407407 38.6742424242424  31.2222222222222 39.2045454545455  C 30.7037037037037 39.7348484848485  30.0740740740741 40  29.3333333333333 40  L 2.66666666666667 40  C 1.92592592592593 40  1.2962962962963 39.7348484848485  0.777777777777778 39.2045454545455  C 0.259259259259259 38.6742424242424  0 38.030303030303  0 37.2727272727273  L 0 20.9090909090909  C 0 20.1515151515151  0.259259259259259 19.5075757575758  0.777777777777778 18.9772727272727  C 1.2962962962963 18.4469696969697  1.92592592592593 18.1818181818182  2.66666666666667 18.1818181818182  L 3.55555555555556 18.1818181818182  L 3.55555555555556 12.7272727272727  C 3.55555555555556 9.24242424242424  4.77777777777778 6.25  7.22222222222222 3.75  C 9.66666666666667 1.25  12.5925925925926 0  16 0  C 19.4074074074074 0  22.3333333333333 1.25  24.7777777777778 3.75  C 27.2222222222222 6.25  28.4444444444444 9.24242424242424  28.4444444444444 12.7272727272727  L 28.4444444444444 18.1818181818182  L 29.3333333333333 18.1818181818182  C 30.0740740740741 18.1818181818182  30.7037037037037 18.4469696969697  31.2222222222222 18.9772727272727  Z " fill-rule="nonzero" fill="#000000" stroke="none" transform="matrix(1 0 0 1 1200 561 )" />
  </g>
</svg>