<?xml version="1.0" encoding="utf-8"?>
<svg version="1.1" xmlns:xlink="http://www.w3.org/1999/xlink" width="12px" height="12px" viewBox="1097 531  12 12" xmlns="http://www.w3.org/2000/svg">
  <path d="M 1103 531  C 1106.36 531  1109 533.64  1109 537  C 1109 540.36  1106.36 543  1103 543  C 1099.64 543  1097 540.36  1097 537  C 1097 533.64  1099.64 531  1103 531  Z " fill-rule="nonzero" fill="#ffffff" stroke="none" />
  <path d="M 1103 531.5  C 1106.08 531.5  1108.5 533.92  1108.5 537  C 1108.5 540.08  1106.08 542.5  1103 542.5  C 1099.92 542.5  1097.5 540.08  1097.5 537  C 1097.5 533.92  1099.92 531.5  1103 531.5  Z " stroke-width="1" stroke="#797979" fill="none" />
  <path d="M 1103 540  C 1101.32 540  1100 538.68  1100 537  C 1100 535.32  1101.32 534  1103 534  C 1104.68 534  1106 535.32  1106 537  C 1106 538.68  1104.68 540  1103 540  " fill-rule="nonzero" fill="#797979" stroke="none" />
</svg>