<?xml version="1.0" encoding="utf-8"?>
<svg version="1.1" xmlns:xlink="http://www.w3.org/1999/xlink" width="12px" height="12px" xmlns="http://www.w3.org/2000/svg">
  <g transform="matrix(1 0 0 1 -382 -192 )">
    <path d="M 11.8515625 0.1484375  C 11.9505208333333 0.247395833333332  12 0.364583333333332  12 0.5  L 12 11.5  C 12 11.6354166666667  11.9505208333333 11.7526041666667  11.8515625 11.8515625  C 11.7526041666667 11.9505208333333  11.6354166666667 12  11.5 12  L 0.5 12  C 0.364583333333333 12  0.247395833333333 11.9505208333333  0.1484375 11.8515625  C 0.0494791666666667 11.7526041666667  0 11.6354166666667  0 11.5  L 0 0.5  C 0 0.364583333333332  0.0494791666666667 0.247395833333332  0.1484375 0.1484375  C 0.247395833333333 0.0494791666666661  0.364583333333333 0  0.5 0  L 11.5 0  C 11.6354166666667 0  11.7526041666667 0.0494791666666661  11.8515625 0.1484375  Z " fill-rule="nonzero" fill="#000000" stroke="none" transform="matrix(1 0 0 1 382 192 )" />
  </g>
</svg>