<?xml version="1.0" encoding="utf-8"?>
<svg version="1.1" xmlns:xlink="http://www.w3.org/1999/xlink" width="12px" height="12px" viewBox="489 399.5  12 12" xmlns="http://www.w3.org/2000/svg">
  <path d="M 495 399.5  C 498.36 399.5  501 402.14  501 405.5  C 501 408.86  498.36 411.5  495 411.5  C 491.64 411.5  489 408.86  489 405.5  C 489 402.14  491.64 399.5  495 399.5  Z " fill-rule="nonzero" fill="#ffffff" stroke="none" />
  <path d="M 495 400  C 498.08 400  500.5 402.42  500.5 405.5  C 500.5 408.58  498.08 411  495 411  C 491.92 411  489.5 408.58  489.5 405.5  C 489.5 402.42  491.92 400  495 400  Z " stroke-width="1" stroke="#797979" fill="none" />
  <path d="M 495 408.5  C 493.32 408.5  492 407.18  492 405.5  C 492 403.82  493.32 402.5  495 402.5  C 496.68 402.5  498 403.82  498 405.5  C 498 407.18  496.68 408.5  495 408.5  " fill-rule="nonzero" fill="#797979" stroke="none" />
</svg>