<?xml version="1.0" encoding="utf-8"?>
<svg version="1.1" xmlns:xlink="http://www.w3.org/1999/xlink" width="29px" height="31px" xmlns="http://www.w3.org/2000/svg">
  <defs>
    <mask fill="white" id="clip20">
      <path d="M 0 15.5  C 0 6.81999999999999  6.37999999999999 0  14.5 0  C 17.6309298937503 0  20.5031672646406 1.01395575052069  22.8507192873463 2.75753009345684  C 26.591493439692 5.53587867600743  29 10.1668560933193  29 15.5  C 29 24.18  22.62 31  14.5 31  C 10.9056611257186 31  7.65226011059902 29.6636803451245  5.14224234081507 27.4212412757663  C 1.98185868115101 24.5977681203544  0 20.337775686113  0 15.5  Z " fill-rule="evenodd" />
    </mask>
  </defs>
  <g transform="matrix(1 0 0 1 -276 -138 )">
    <path d="M 0 15.5  C 0 6.81999999999999  6.37999999999999 0  14.5 0  C 17.6309298937503 0  20.5031672646406 1.01395575052069  22.8507192873463 2.75753009345684  C 26.591493439692 5.53587867600743  29 10.1668560933193  29 15.5  C 29 24.18  22.62 31  14.5 31  C 10.9056611257186 31  7.65226011059902 29.6636803451245  5.14224234081507 27.4212412757663  C 1.98185868115101 24.5977681203544  0 20.337775686113  0 15.5  Z " fill-rule="nonzero" fill="#00ffff" stroke="none" transform="matrix(1 0 0 1 276 138 )" />
    <path d="M 0 15.5  C 0 6.81999999999999  6.37999999999999 0  14.5 0  C 17.6309298937503 0  20.5031672646406 1.01395575052069  22.8507192873463 2.75753009345684  C 26.591493439692 5.53587867600743  29 10.1668560933193  29 15.5  C 29 24.18  22.62 31  14.5 31  C 10.9056611257186 31  7.65226011059902 29.6636803451245  5.14224234081507 27.4212412757663  C 1.98185868115101 24.5977681203544  0 20.337775686113  0 15.5  Z " stroke-width="2" stroke="#797979" fill="none" transform="matrix(1 0 0 1 276 138 )" mask="url(#clip20)" />
  </g>
</svg>