<?xml version="1.0" encoding="utf-8"?>
<svg version="1.1" xmlns:xlink="http://www.w3.org/1999/xlink" width="50px" height="46px" xmlns="http://www.w3.org/2000/svg">
  <g transform="matrix(1 0 0 1 -51 -283 )">
    <path d="M 47.4489795918367 9.19401041666666  C 48.2092837134854 9.49348958333334  48.7995198079232 9.92274305555555  49.2196878751501 10.4817708333333  C 50.0200080032013 11.6197916666667  50.2000800320128 12.9075520833333  49.7599039615846 14.3450520833333  L 41.5066026410564 41.4778645833333  C 41.1264505802321 42.7556423611111  40.3611444577831 43.8287760416667  39.2106842737095 44.697265625  C 38.0602240896359 45.5657552083333  36.8347338935574 46  35.5342136854742 46  L 7.83313325330132 46  C 6.29251700680272 46  4.80692276910764 45.4659288194445  3.37635054021609 44.3977864583333  C 1.94577831132453 43.3296440972222  0.950380152060824 42.0169270833333  0.39015606242497 40.4596354166667  C -0.0900360144057623 39.1219618055556  -0.110044017607043 37.8541666666667  0.330132052821128 36.65625  C 0.330132052821128 36.5763888888889  0.360144057623049 36.3068576388889  0.420168067226891 35.84765625  C 0.480192076830732 35.3884548611111  0.520208083233293 35.0190972222222  0.540216086434574 34.7395833333333  C 0.560224089635854 34.5798611111111  0.530212084833934 34.365234375  0.450180072028812 34.095703125  C 0.370148059223689 33.826171875  0.340136054421769 33.6315104166667  0.360144057623049 33.51171875  C 0.40016006402561 33.2921006944444  0.480192076830732 33.0824652777778  0.600240096038415 32.8828125  C 0.720288115246098 32.6831597222222  0.885354141656663 32.4485677083333  1.09543817527011 32.1790364583333  C 1.30552220888355 31.9095052083333  1.47058823529412 31.6749131944444  1.5906362545018 31.4752604166667  C 2.05082032813125 30.7165798611111  2.50100040016006 29.8031684027778  2.94117647058824 28.7350260416667  C 3.38135254101641 27.6668836805556  3.68147258903561 26.7534722222222  3.84153661464586 25.9947916666667  C 3.9015606242497 25.7951388888889  3.90656262505002 25.4956597222222  3.85654261704682 25.0963541666667  C 3.80652260904362 24.6970486111111  3.8015206082433 24.4175347222222  3.84153661464586 24.2578125  C 3.9015606242497 24.0381944444444  4.07162865146058 23.7586805555556  4.35174069627851 23.4192708333333  C 4.63185274109644 23.0798611111111  4.80192076830732 22.8502604166667  4.86194477791116 22.73046875  C 5.28211284513806 22.01171875  5.70228091236495 21.0933159722222  6.12244897959184 19.9752604166667  C 6.54261704681873 18.8572048611111  6.79271708683473 17.9587673611111  6.87274909963986 17.2799479166667  C 6.89275710284114 17.1002604166667  6.86774709883954 16.7808159722222  6.79771908763505 16.3216145833333  C 6.72769107643057 15.8624131944444  6.73269307723089 15.5828993055556  6.81272509003601 15.4830729166667  C 6.89275710284114 15.2235243055556  7.11284513805522 14.9190538194444  7.47298919567827 14.5696614583333  C 7.83313325330132 14.2202690972222  8.05322128851541 13.9956597222222  8.13325330132053 13.8958333333333  C 8.51340536214486 13.3767361111111  8.93857543017207 12.533203125  9.40876350540216 11.365234375  C 9.87895158063225 10.197265625  10.1540616246499 9.23394097222222  10.234093637455 8.47526041666666  C 10.2541016406563 8.31553819444444  10.2240896358543 8.06098090277777  10.1440576230492 7.71158854166667  C 10.0640256102441 7.36219618055555  10.0440176070428 7.09765625  10.0840336134454 6.91796875  C 10.1240496198479 6.75824652777777  10.2140856342537 6.57855902777777  10.3541416566627 6.37890625  C 10.4941976790716 6.17925347222222  10.6742697078832 5.94965277777777  10.8943577430972 5.69010416666667  C 11.1144457783113 5.43055555555555  11.2845138055222 5.22092013888889  11.4045618247299 5.06119791666667  C 11.5646258503401 4.82161458333333  11.7296918767507 4.51714409722222  11.8997599039616 4.14778645833333  C 12.0698279311725 3.77842881944444  12.2198879551821 3.42903645833333  12.3499399759904 3.099609375  C 12.4799919967987 2.77018229166667  12.640056022409 2.41080729166667  12.8301320528211 2.021484375  C 13.0202080832333 1.63216145833334  13.2152861144458 1.31271701388889  13.4153661464586 1.06315104166666  C 13.6154461784714 0.813585069444438  13.8805522208884 0.578993055555552  14.2106842737095 0.359375  C 14.5408163265306 0.139756944444438  14.9009603841537 0.0249565972222217  15.2911164465786 0.014973958333335  C 15.6812725090036 0.0049913194444382  16.156462585034 0.059895833333335  16.7166866746699 0.1796875  L 16.6866746698679 0.26953125  C 17.4469787915166 0.08984375  17.9571828731493 0  18.2172869147659 0  L 41.0564225690276 0  C 42.5370148059224 0  43.6774709883954 0.559027777777773  44.4777911164466 1.67708333333334  C 45.2781112444978 2.79513888888889  45.4581832733093 4.09288194444444  45.0180072028812 5.5703125  L 36.7947178871549 32.703125  C 36.0744297719088 35.0789930555556  35.359143657463 36.611328125  34.6488595438175 37.3001302083333  C 33.9385754301721 37.9889322916667  32.6530612244898 38.3333333333333  30.7923169267707 38  L 4.71188475390156 38  C 4.17166866746699 38.3333333333333  3.79151660664266 38.4830729166667  3.57142857142857 38.7825520833333  C 3.35134053621449 39.1019965277778  3.34133653461385 39.53125  3.54141656662665 40.0703125  C 4.02160864345738 41.4678819444445  5.46218487394958 42.1666666666667  7.86314525810324 42  L 35.5642256902761 42  C 36.1444577831132 42.1666666666667  36.7046818727491 42.0119357638889  37.2448979591837 41.7024739583333  C 37.7851140456182 41.3930121527778  38.1352541016407 40.9787326388889  38.2953181272509 40.4596354166667  L 47.2989195678271 10.9010416666667  C 47.4389755902361 10.4618055555556  47.4889955982393 9.89279513888889  47.4489795918367 9.19401041666666  Z M 17.9171668667467 8.625  L 17.2869147659064 10.5416666666667  C 17.2068827531012 10.8012152777778  17.2268907563025 11.0258246527778  17.3469387755102 11.2154947916667  C 17.4669867947179 11.4051649305556  17.6670668267307 11.5  17.9471788715486 12  L 36.1944777911164 12  C 36.4545818327331 11.5  36.7096838735494 11.4051649305556  36.9597839135654 11.2154947916667  C 37.2098839535814 11.0258246527778  37.374949979992 10.8012152777778  37.4549819927971 10.5416666666667  L 38.0852340936375 8.625  C 38.1652661064426 8.36545138888889  38.1452581032413 8.14084201388889  38.0252100840336 7.951171875  C 37.9051620648259 7.76150173611111  37.7050820328131 7.66666666666667  37.4249699879952 8  L 19.1776710684274 8  C 18.9175670268107 7.66666666666667  18.6624649859944 7.76150173611111  18.4123649459784 7.951171875  C 18.1622649059624 8.14084201388889  17.9971988795518 8.36545138888889  17.9171668667467 8.625  Z M 15.4261704681873 16.2916666666667  L 14.7959183673469 18.2083333333333  C 14.7158863545418 18.4678819444444  14.7358943577431 18.6924913194444  14.8559423769508 18.8821614583333  C 14.9759903961585 19.0718315972222  15.1760704281713 19.1666666666667  15.4561824729892 20  L 33.703481392557 20  C 33.9635854341737 19.1666666666667  34.21868747499 19.0718315972222  34.468787515006 18.8821614583333  C 34.718887555022 18.6924913194444  34.8839535814326 18.4678819444444  34.9639855942377 18.2083333333333  L 35.594237695078 16.2916666666667  C 35.6742697078832 16.0321180555556  35.6542617046819 15.8075086805556  35.5342136854742 15.6178385416667  C 35.4141656662665 15.4281684027778  35.2140856342537 15.3333333333333  34.9339735894358 16  L 16.6866746698679 16  C 16.4265706282513 15.3333333333333  16.171468587435 15.4281684027778  15.921368547419 15.6178385416667  C 15.671268507403 15.8075086805556  15.5062024809924 16.0321180555556  15.4261704681873 16.2916666666667  Z " fill-rule="nonzero" fill="#f653ac" stroke="none" transform="matrix(1 0 0 1 51 283 )" />
  </g>
</svg>