<?xml version="1.0" encoding="utf-8"?>
<svg version="1.1" xmlns:xlink="http://www.w3.org/1999/xlink" width="51px" height="49px" xmlns="http://www.w3.org/2000/svg">
  <g transform="matrix(1 0 0 1 -148 -743 )">
    <path d="M 17.1470424107143 17.5296223958334  C 17.8585379464287 18.3271484375  18.2142857142857 19.2894965277775  18.2142857142857 20.4166666666666  C 18.2142857142857 21.5438368055556  17.8585379464287 22.5061848958334  17.1470424107143 23.3037109375  C 16.435546875 24.1012369791666  15.5770089285715 24.5  14.5714285714287 24.5  C 13.5658482142858 24.5  12.707310267857 24.1012369791666  11.995814732143 23.3037109375  C 11.2843191964287 22.5061848958334  10.9285714285713 21.5438368055556  10.9285714285713 20.4166666666666  C 10.9285714285713 19.2894965277775  11.2843191964287 18.3271484375  11.995814732143 17.5296223958334  C 12.707310267857 16.7320963541666  13.5658482142858 16.3333333333334  14.5714285714287 16.3333333333334  C 15.5770089285715 16.3333333333334  16.435546875 16.7320963541666  17.1470424107143 17.5296223958334  Z M 28.0756138392857 17.5296223958334  C 28.787109375 18.3271484375  29.142857142857 19.2894965277775  29.142857142857 20.4166666666666  C 29.142857142857 21.5438368055556  28.787109375 22.5061848958334  28.0756138392857 23.3037109375  C 27.3641183035713 24.1012369791666  26.5055803571429 24.5  25.5 24.5  C 24.4944196428571 24.5  23.6358816964287 24.1012369791666  22.9243861607143 23.3037109375  C 22.212890625 22.5061848958334  21.857142857143 21.5438368055556  21.857142857143 20.4166666666666  C 21.857142857143 19.2894965277775  22.212890625 18.3271484375  22.9243861607143 17.5296223958334  C 23.6358816964287 16.7320963541666  24.4944196428571 16.3333333333334  25.5 16.3333333333334  C 26.5055803571429 16.3333333333334  27.3641183035713 16.7320963541666  28.0756138392857 17.5296223958334  Z M 39.004185267857 17.5296223958334  C 39.7156808035713 18.3271484375  40.0714285714287 19.2894965277775  40.0714285714287 20.4166666666666  C 40.0714285714287 21.5438368055556  39.7156808035713 22.5061848958334  39.004185267857 23.3037109375  C 38.292689732143 24.1012369791666  37.4341517857142 24.5  36.4285714285713 24.5  C 35.4229910714285 24.5  34.564453125 24.1012369791666  33.8529575892857 23.3037109375  C 33.1414620535713 22.5061848958334  32.7857142857143 21.5438368055556  32.7857142857143 20.4166666666666  C 32.7857142857143 19.2894965277775  33.1414620535713 18.3271484375  33.8529575892857 17.5296223958334  C 34.564453125 16.7320963541666  35.4229910714285 16.3333333333334  36.4285714285713 16.3333333333334  C 37.4341517857142 16.3333333333334  38.292689732143 16.7320963541666  39.004185267857 17.5296223958334  Z M 36.357421875 6.30045572916657  C 32.9896763392858 4.82237413194438  29.3705357142857 4.08333333333343  25.5 4.08333333333343  C 21.6294642857143 4.08333333333343  18.0103236607142 4.82237413194438  14.642578125 6.30045572916657  C 11.2748325892858 7.77853732638905  8.59960937500011 9.77235243055562  6.61690848214303 12.2819010416666  C 4.63420758928575 14.7914496527775  3.64285714285697 17.5030381944444  3.64285714285697 20.4166666666666  C 3.64285714285697 22.7986111111109  4.32114955357154 25.0689019097225  5.677734375 27.2275390625  C 7.03431919642847 29.3861762152775  8.94587053571423 31.2523871527775  11.412388392857 32.826171875  L 13.888392857143 34.4212239583334  L 13.1199776785713 37.4837239583334  C 12.6646205357143 39.4190538194444  12.0005580357143 41.248046875  11.1277901785713 42.970703125  C 14.0117187499999 41.630859375  16.6205357142857 39.8125  18.9542410714287 37.515625  L 20.178013392857 36.3033854166666  L 21.8002232142857 36.4947916666666  C 23.109375 36.6649305555556  24.3426339285715 36.75  25.5 36.75  C 29.3705357142857 36.75  32.9896763392858 36.010959201389  36.357421875 34.5328776041666  C 39.7251674107142 33.0547960069444  42.4003906249999 31.0609809027775  44.383091517857 28.5514322916666  C 46.3657924107142 26.0418836805556  47.357142857143 23.3302951388891  47.357142857143 20.4166666666666  C 47.357142857143 17.5030381944444  46.3657924107142 14.7914496527775  44.383091517857 12.2819010416666  C 42.4003906249999 9.77235243055562  39.7251674107142 7.77853732638905  36.357421875 6.30045572916657  Z M 48.9793526785713 12.4892578125  C 50.3264508928572 15.0094401041666  51 17.6519097222225  51 20.4166666666666  C 51 24.1171875  49.861607142857 27.5359157986109  47.5848214285713 30.6728515625  C 45.3080357142857 33.809787326389  42.2154017857142 36.2874348958334  38.306919642857 38.1057942708334  C 34.3984375000001 39.9241536458334  30.1294642857143 40.8333333333334  25.5 40.8333333333334  C 24.1718749999999 40.8333333333334  22.7963169642857 40.748263888889  21.373325892857 40.578125  C 17.6166294642857 44.2999131944444  13.2527901785714 46.873263888889  8.28180803571434 48.2981770833334  C 7.35212053571423 48.595920138889  6.27064732142857 48.829861111111  5.03738839285697 49  L 4.89508928571434 49  C 4.61049107142868 49  4.35435267857132 48.8883463541666  4.12667410714303 48.6650390625  C 3.89899553571434 48.4417317708334  3.74720982142846 48.1493055555556  3.67131696428566 47.7877604166666  L 3.67131696428566 47.755859375  C 3.61439732142868 47.6707899305556  3.60965401785719 47.543185763889  3.65708705357132 47.373046875  C 3.70452008928577 47.202907986111  3.72349330357154 47.0965711805556  3.71400669642868 47.0540364583334  C 3.70452008928577 47.011501736111  3.74720982142846 46.9104817708334  3.84207589285697 46.7509765625  L 4.01283482142868 46.4638671875  C 4.01283482142868 46.4638671875  4.07924107142857 46.3734809027775  4.21205357142868 46.1927083333334  C 4.34486607142846 46.011935763889  4.42075892857154 45.916232638889  4.43973214285697 45.9055989583334  C 4.57254464285708 45.7354600694444  4.86662946428566 45.3685980902775  5.32198660714303 44.8050130208334  C 5.77734375 44.241427951389  6.10463169642868 43.8373480902775  6.30385044642868 43.5927734375  C 6.50306919642868 43.3481987847225  6.79715401785719 42.9281684027775  7.18610491071434 42.3326822916666  C 7.57505580357143 41.7371961805556  7.88337053571434 41.1948784722225  8.11104910714303 40.7057291666666  C 8.33872767857132 40.216579861111  8.59486607142868 39.5891927083334  8.87946428571434 38.8235677083334  C 9.1640625 38.0579427083334  9.41071428571425 37.249782986111  9.61941964285697 36.3990885416666  C 6.64062499999989 34.5062934027775  4.29268973214292 32.1668836805556  2.57561383928566 29.380859375  C 0.858537946428465 26.5948350694444  0 23.6067708333334  0 20.4166666666666  C 0 17.6519097222225  0.673549107142807 15.0094401041666  2.02064732142868 12.4892578125  C 3.36774553571423 9.96907552083343  5.1796875 7.79448784722248  7.45647321428566 5.96549479166657  C 9.73325892857132 4.13650173611095  12.4464285714286 2.68500434027752  15.595982142857 1.61100260416657  C 18.7455357142858 0.537000868055621  22.0468750000001 0  25.5 0  C 28.9531249999999 0  32.2544642857142 0.537000868055621  35.404017857143 1.61100260416657  C 38.5535714285714 2.68500434027752  41.2667410714287 4.13650173611095  43.5435267857143 5.96549479166657  C 45.8203125 7.79448784722248  47.6322544642858 9.96907552083343  48.9793526785713 12.4892578125  Z " fill-rule="nonzero" fill="#667982" stroke="none" transform="matrix(1 0 0 1 148 743 )" />
  </g>
</svg>